<svg xmlns="http://www.w3.org/2000/svg" width="140.121" height="98.091" viewBox="0 0 140.121 98.091">
    <defs>
        <linearGradient id="kv9uc8sm4a" x1="-6.104" y1="2.665" x2="3.33" y2="5.291" gradientUnits="objectBoundingBox">
            <stop offset="0" stop-color="#efde81"/>
            <stop offset="1" stop-color="#d9ad06"/>
        </linearGradient>
    </defs>
    <g data-name="Group 131">
        <path data-name="Path 113" d="M175.438 33.1c.753-.043 6.514-.213 6.9 4.663.515 6.16-6.163 8.1-6.163 8.1s-17.227 5.837-18.034 17.045h.782a13.229 13.229 0 0 1 .361-1.757l1.808.151a7.939 7.939 0 0 0-.18 1.605h.754a12.445 12.445 0 0 1 3.169-7.05l8.82.127a19.321 19.321 0 0 0-1.087 6.923h.829c-.012-.532.006-1.031.028-1.523h1.866c0 .458 0 .922.031 1.4l.707.121c-.479-10.542 5.5-13.584 5.5-13.584 7.215-5.088 5.787-11.055 5.787-11.055s-.5-7.464-12.774-8.046a6.151 6.151 0 0 1 .892 2.882m7.167 4.638c-.006-.113-.038-.2-.047-.308l.833-.16a7.628 7.628 0 0 1 .147 1 6.428 6.428 0 0 1-.015.694l-.9.157a6.553 6.553 0 0 0-.014-1.387m1.132 2.206 2.464-.515a7.113 7.113 0 0 1-.274 1.87 6.6 6.6 0 0 1-1.2 2.465l-2.715-.142a8.3 8.3 0 0 0 1.726-3.677m1.552-5.343a8.217 8.217 0 0 1 .891 1.281l-.485.11a7.844 7.844 0 0 0-.741-1.123zm-2.1-1.806a8.209 8.209 0 0 1 1.016.732l-.177.313a5.731 5.731 0 0 0-.635-.543 2.961 2.961 0 0 0-.308-.22zm.1.776a8.287 8.287 0 0 1 2.125 2.652l-1.808.566a5.523 5.523 0 0 0-1.59-2.352l.583-1.336c.224.142.468.3.69.461m-4.236-2.505c.341.092.673.179.973.283l-.024.233c-.327-.11-.656-.214-.974-.3zm-3.52-.566v.121c-.438-.047-.7-.066-.7-.066l.023.048c-.07-.1-.1-.165-.112-.174.275.016.523.046.79.071m-.022 1.988a6.209 6.209 0 0 0-.492-1.564c.164.007.551.027 1.09.083l.094 1.506a10.513 10.513 0 0 0-.692-.025m1.067.457-.015-.223a9.4 9.4 0 0 1 1.2.143l.014.246a10.591 10.591 0 0 0-1.2-.166M177.873 31c-.4-.087-.79-.163-1.132-.223v-.157c.386.062.773.118 1.132.184zm2.253 2.94a7.082 7.082 0 0 0-1.084-.481l.051-.269a8.44 8.44 0 0 1 1.118.411zm-.093-.709a9.994 9.994 0 0 0-1.883-.533l.076-1.337a16.433 16.433 0 0 1 2.072.622zm1.044-1.247.051-.254c.334.13.643.268.945.42l-.116.237a9.917 9.917 0 0 0-.879-.4m1.046 4.008a4.974 4.974 0 0 0-.752-1.09l.2-.477a5.207 5.207 0 0 1 1.24 1.407zm.059 4.974.983-.054a8.3 8.3 0 0 1-.626 1.381h-1.054a7.806 7.806 0 0 0 .7-1.327m-1.925 2.77h1.215a10.625 10.625 0 0 1-1.123 1.082l-1.505.049a10.887 10.887 0 0 0 1.413-1.131m-3.973 2.449h2.137a12.954 12.954 0 0 1-1.472.754c-.016.018-.283.115-.719.307l-2.158-.154c.933-.392 1.7-.7 2.212-.907m-4.888 2.167 2.139.207c-.628.325-1.312.713-2.03 1.137l-2.382-.093c.778-.473 1.53-.878 2.272-1.251m-9.647 10.894-1.734-.183A14.11 14.11 0 0 1 161.125 57l1.732.251a12.65 12.65 0 0 0-1.106 2m2.258-3.519-1.794-.275a21.413 21.413 0 0 1 1.532-1.713l1.875.305a20.2 20.2 0 0 0-1.612 1.683m3.432-3.262-1.963-.312a28.802 28.802 0 0 1 1.684-1.272l2.075.27c-.6.412-1.2.848-1.8 1.314m7.984 6.591-1.746-.051c.1-.6.231-1.16.363-1.693l1.677-.02.009-.032c-.114.568-.23 1.157-.3 1.8m.79-3.548-1.573-.09a15.177 15.177 0 0 1 .8-1.719l1.466.147a18.391 18.391 0 0 0-.69 1.662m1.766-3.485-1.463-.054a13.671 13.671 0 0 1 .93-1.125l1.466.009a12 12 0 0 0-.934 1.17m3.078-3a8.742 8.742 0 0 0-.731.508l-1.518.052a6.876 6.876 0 0 1 .591-.409c.407-.285.8-.557 1.165-.827l1.366.06c-.285.21-.565.412-.874.614m-2.1-.007a8.9 8.9 0 0 0-1.613 1.241l-5.88.015a39.323 39.323 0 0 1 5.556-2.968 10.9 10.9 0 0 0 1.2-.564l3.822-.054a27.5 27.5 0 0 1-3.085 2.329m4.911-2.249-1.47.061c.422-.4.81-.779 1.159-1.16l1.339-.072a14.391 14.391 0 0 1-1.028 1.17m1.9-2.444h-1.1c.254-.344.472-.668.66-.961h.941a14.65 14.65 0 0 1-.505.959m1.017-2.31-.723.029a4.57 4.57 0 0 0 .3-.786c.047-.159.06-.328.093-.484l.608-.045a10.449 10.449 0 0 1-.283 1.286m-.226-3.075a7.372 7.372 0 0 0-.287-1.529l.531-.106a7.473 7.473 0 0 1 .325 1.546z" transform="translate(-88.588 -16.691)" style="fill:#050605"/>
        <path data-name="Path 114" d="M108.44 32.565a2.528 2.528 0 0 1-1.649-.754c.012-.344.373-.873-.106-1.159a.686.686 0 0 0-.778-.007.652.652 0 0 0-.288.43c-.086.418.576.553.308.994a2.939 2.939 0 0 1-2.288 1.166 3.5 3.5 0 0 1-.873-.175c.158-.154.477-.077.6-.308.071-.089.045-.206.082-.3.142-.326.676-.4.511-.821-.338-.333-.9-.109-1.17-.536-.477-.163-.77.378-1.1.651-.174-.084-.218-.341-.32-.506a1.989 1.989 0 0 0-.535-.473l-.262.06a15.12 15.12 0 0 1 1.493-2.974.423.423 0 0 0-.107-.4c-1.238-.781-2.665-1.735-3.142-3.162a5.043 5.043 0 0 1 .921-5.174 7.085 7.085 0 0 1 4.624-2.274c.1 0 .194 0 .192.118a11.194 11.194 0 0 0 .243 2.5 29.875 29.875 0 0 1 1.325 6.705 2.117 2.117 0 0 0 .171.931c.681.491 1.521.592 2.229 1.013a9.953 9.953 0 0 1 1.517.922c-.039.394.3.6.535.808a5.147 5.147 0 0 1-.691.018c-.218.047-.526-.05-.679.086-.035.461-.6.53-.752.911.208.411.736.316.955.7.124.215.427.092.639.153.115-.1.136.079.257-.025.045-.036.2.008.206-.1-.009.008.008.03.027.042.152-.069.239-.225.443-.151.093 0 .176-.059.233 0a2.782 2.782 0 0 1-2.771 1.088m13.122-3.783-.1.017c-.523-.035-1.041-.3-1.56-.1a.708.708 0 0 0-.244.444 2.022 2.022 0 0 0-.649.447c.153.325.5.373.746.581.18.152.227.471.507.5a8.1 8.1 0 0 0 1.406-.23c-.045.3-.424.429-.665.608a2.865 2.865 0 0 1-2.532.025 5.047 5.047 0 0 1-.889-.695 1.381 1.381 0 0 0 .253-.7.6.6 0 0 0-.3-.5.83.83 0 0 0-.721 0 1.114 1.114 0 0 0-.334.5 1.329 1.329 0 0 0 .392.687 2.8 2.8 0 0 1-2.439 1.423 2.31 2.31 0 0 1-1.733-.586c.116-.15.34-.017.5-.07.146.07.325.01.462.041.237-.041.584.1.8-.1.177-.146.159-.442.385-.517.133-.157.3-.2.4-.415.1-.275-.249-.381-.425-.483a4.008 4.008 0 0 1-.693-.538c-.581.119-1.082.38-1.643.5l-.053-.049a1.21 1.21 0 0 0 .137-.794c-.1-.236-.367-.144-.56-.229v-.126a22.548 22.548 0 0 1 1.806-2.935.51.51 0 0 0 0-.329 12.478 12.478 0 0 1-3.633-6.784c-.329-2.092.09-4.209 1.888-5.4a9.312 9.312 0 0 1 3.626-1.583 3.037 3.037 0 0 1 .964-.048c.814.459 1.221 1.41 1.76 2.136a10.468 10.468 0 0 1 1.25 6.39 25.525 25.525 0 0 1-.962 4.7l3.043 2.627c.044.067.1.157.073.217-.245.173-.639-.078-.8.234a3.43 3.43 0 0 0 .543 1.133m11.12-.18c-.084.026-.181.026-.21.125-.053.3.1.549.105.857a5.717 5.717 0 0 0-1.227-.436c-.265.04-.7-.108-.778.261-.244.176-.608.121-.792.4.02.428.5.5.657.844.116.633.8.338 1.235.441.341.02.666-.056 1-.06-.2.345-.63.385-.943.576a3.1 3.1 0 0 1-3.359-.915l-.188-.369c.188-.144.464-.307.43-.6.089-.28-.2-.384-.336-.557a.813.813 0 0 0-.645-.016.859.859 0 0 0-.334.369c-.095.291.106.492.24.689a2.473 2.473 0 0 1-1.727 1.06 2.5 2.5 0 0 1-2.556-.865c.314-.038.566.151.864.183a1.663 1.663 0 0 0 .959.011l.232-.452a1.823 1.823 0 0 0 .683-.45c-.061-.322-.451-.433-.7-.571-.133-.167-.181-.452-.42-.495-.518.043-1.039.123-1.527.186.094-.31.421-.565.561-.874a.393.393 0 0 0-.024-.33c-.26-.168-.686-.035-.861-.346a10.037 10.037 0 0 1 2.061-1.882l1.208-.861.025-.071a15.766 15.766 0 0 1-1.085-7.532 10.47 10.47 0 0 1 2.571-5.768.728.728 0 0 1 .731-.158c2.257.458 4.862 1.4 5.848 3.784a8.315 8.315 0 0 1-.29 5.826 13.7 13.7 0 0 1-2.958 4.385c-.093.18.171.324.244.487a19.4 19.4 0 0 1 1.778 2.934c.018.293-.325.085-.471.193m3.295 1.588-.026-.224-.211-.188a8.787 8.787 0 0 0-1.221.062c.271-.233.728-.484.621-.894l-.269-.177a22.664 22.664 0 0 1 3.644-1.851c.13-.087.275-.18.285-.334-.193-2.1.56-3.862.99-5.712a11.3 11.3 0 0 0 .522-4.186 6.206 6.206 0 0 0-.874-2.971 8.028 8.028 0 0 0-5.164-3.754c-.391-.111-.844-.039-1.16-.321-.266-.083-.635.09-.781-.241a2.971 2.971 0 0 1-.831-.167c-.317.175-.486-.276-.812-.179-.59-.621-1.522-.378-2.228-.714a2.375 2.375 0 0 0-2.3-.48 18.369 18.369 0 0 1-2.028-.438c0-.276-.32-.4-.363-.664l.777-.951-1.827-5.078-.275-.727a.16.16 0 0 0-.137.044l-.23.687-1.666 5.1.7.872c.128.234-.243.386-.258.628-.019.321-.374.269-.585.362-.638.034-1.178.416-1.822.283a2.687 2.687 0 0 0-1.657.189c-.653.636-1.618.5-2.463.7a2.51 2.51 0 0 1-1.234.431.875.875 0 0 1-.54.189c-.261.287-.744.108-1 .394a8.644 8.644 0 0 0-6.2 4.089c-.193.095-.366-.164-.587-.089-.181.184-.472.1-.7.089-.211.235-.561-.037-.8.181-.22-.033-.46-.047-.566.185-.223-.021-.525-.1-.675.133l-.409-.024c-.109.047-.266.095-.3.244-.1.053-.18-.034-.264-.031a.432.432 0 0 0-.484.251c-.138.093-.276-.051-.419 0-.206.035-.311.222-.416.373l-.412-.047c-.22.062-.279.312-.37.464a1.064 1.064 0 0 0-.456.028c-.167.06-.192.258-.21.423-.118.158-.361.071-.518.085a.52.52 0 0 0-.244.464c-.119.229-.55-.009-.664.307a.55.55 0 0 0-.026.436c-.073.138-.272.081-.4.148a.424.424 0 0 0-.294.377c.253.458-.374.265-.478.531a.78.78 0 0 0 0 .6c-.165.142-.423.142-.544.374-.139.159 0 .372.025.527-.108.191-.407.181-.489.423s.057.431.119.621c-.1.153-.275.124-.359.3a.747.747 0 0 0 .134.828l-.265.31a.526.526 0 0 0 .087.55c.324.168-.119.273-.115.463a.522.522 0 0 0 .141.612c.542.09-.015.459.072.732a.783.783 0 0 0 .489.514l-.126.512c-.028.337.371.411.56.584-.171.177-.063.424-.031.654.064.188.277.219.444.251.39.131-.141.463.182.677a.893.893 0 0 0 .407.194c.412 0 .054.378.194.58a.569.569 0 0 0 .359.324c.16.077.372.026.477.139a.917.917 0 0 0 .286.759.962.962 0 0 0 .751.042c.227.023.415.241.563.4-.105.236.055.426.133.616l-.322.245c-.02.084-.09.2 0 .267.387.128.814.158 1.209.261.451.15 1.026.34 1.129.875.121.336.463.46.745.6.17.493.759.628 1.13.986.306.365-.146.874.239 1.218a1.075 1.075 0 0 1 .717 1.03c-.34.411-.12 1.02.085 1.433.257.458.818.348 1.144.706.2.313-.219.435-.236.69-.09.263.141.407.258.586.618.167.386.93.553 1.4 0 .257-.376.251-.325.562a.62.62 0 0 0 .372.579h15.41c2.82-6.53 12.5-11.44 12.5-11.44z" transform="translate(-52.912)" style="fill:#050605"/>
        <path data-name="Path 115" d="M156.09 4.162c.374.958.675 1.931.969 2.916a1.748 1.748 0 0 1-.6.7 4.937 4.937 0 0 1-1.68.068 1.337 1.337 0 0 1-.584-.763c.466-1.434.818-2.912 1.368-4.31a10.063 10.063 0 0 1 .532 1.384" transform="translate(-86.143 -1.534)" style="fill:#050605"/>
        <path data-name="Path 116" d="m126.456 83.376-3.406-1.422 3.4-1.16 3.488 1.188z" transform="translate(-68.769 -45.141)" style="fill:#050605"/>
        <path data-name="Path 117" d="m155.07 82.592-1.662.647-3.428-1.365 3.308-1.276 2.767.962z" transform="translate(-83.813 -45.031)" style="fill:#050605"/>
        <path data-name="Path 118" d="M154.245 79.488h.283c.017-.063 2.793-7.112 14.6-12.324l-.1-.214c-11.9 5.251-14.752 12.472-14.783 12.539" transform="translate(-86.267 -37.455)" style="fill:#050605"/>
        <path data-name="Path 119" d="M60.831 118.986c1.218-.576.355-.126 1.556-.724a.71.71 0 0 0 .393-.652c0-.06-.057-.061-.089-.039-.056.032-.089.148-.273.228-1.2.568-.368.133-1.557.725a.708.708 0 0 0-.392.651c0 .059.057.061.09.037.058-.03.089-.145.273-.226" transform="translate(-33.781 -65.674)" style="fill:#050605"/>
        <path data-name="Path 120" d="M299.736 117.962a5.622 5.622 0 0 1 1.129-.058l.038.023c-.218.364-.629.639-.854.981.4-.176 1.252-.957 1.2-1.419-.02-.1-.052-.149-.17-.165a5.162 5.162 0 0 0-1.216.019c-.516.061-.582.449-.693.9-.032.127.057.111.1.056a.545.545 0 0 1 .464-.336" transform="translate(-167.215 -65.527)" style="fill:#050605"/>
        <path data-name="Path 121" d="M112.808 135.528a2.714 2.714 0 0 0 .788-1.29c-.283-.3-.656-.306-.967-.514a6.266 6.266 0 0 0-.854 1.208 4.994 4.994 0 0 1 1.033.6" transform="translate(-62.441 -74.706)" style="fill:#050605"/>
        <path data-name="Path 122" d="M137.06 125.317c.531 2 2.211 3.532 3.408 5.259a12.806 12.806 0 0 1 1.977 3.584 5.872 5.872 0 0 1-.052 2.3 6.89 6.89 0 0 0 .42-1.484 4.931 4.931 0 0 0-.593-3.657c-1.117-2.044-2.62-3.481-3.832-5.425a9.3 9.3 0 0 1-.844-1.8c-.15-.429.059-.43.192-.727.3-.681-.216-1.268-.5-1.836-.052-.08-.156-.069-.154.039-.018.574-.84 1.128-.224 1.63a6.442 6.442 0 0 0 .206 2.121" transform="translate(-76.352 -67.985)" style="fill:#050605"/>
        <path data-name="Path 123" d="M44.8 124.876a7.755 7.755 0 0 1 1.575-.081l.053.031c-.3.508-.877.893-1.192 1.37.553-.244 1.748-1.334 1.682-1.979-.029-.146-.075-.207-.237-.23a7.321 7.321 0 0 0-1.7.028c-.72.084-.813.624-.968 1.252-.044.176.078.154.137.078a.758.758 0 0 1 .647-.468" transform="translate(-24.305 -69.249)" style="fill:#050605"/>
        <path data-name="Path 124" d="M141.226 122.57c.763-.384 1.876-1.026 1.945-1.992.03-.413-.374-.413-.6-.214a1.21 1.21 0 0 0-.321.657c-.025.279.111.309.33.188a.555.555 0 0 0 .187-.177c.186.184-1.353 1.388-1.543 1.538" transform="translate(-78.894 -67.174)" style="fill:#050605"/>
        <path data-name="Path 125" d="M145.847 134.677a5.478 5.478 0 0 1-1.766 1.886 31.48 31.48 0 0 1-4.47 1.746c3.166-.265 5.989.1 6.723-3.99.341-3.485-.462-7.2-.445-10.759a1.677 1.677 0 0 0 .27-.574c.329-.5-.176-1-.268-1.5-.013-.061-.01-.113-.081-.143-.124-.053-.208.235-.261.349-.126.338-.561.638-.382 1.029-.177 4 .436 7.947.68 11.956" transform="translate(-78.024 -67.929)" style="fill:#050605"/>
        <path data-name="Path 126" d="M46.035 137.53a5.011 5.011 0 0 0 1.388.586 3.089 3.089 0 0 0 .658-1.192 2.9 2.9 0 0 0-1.319-.635 4.159 4.159 0 0 0-.728 1.241" transform="translate(-25.423 -76.14)" style="fill:#050605"/>
        <path data-name="Path 127" d="M8.042 147.613c0-.211.629-1.011 1.1-.883a4.737 4.737 0 0 1 1.1 1.606 2.906 2.906 0 0 1-2.2-.723m3.17.269a4.6 4.6 0 0 0-1.434-2.5c-1.4-.849-2.1 2.515-2.378 3.146-.438 1.427-6.209 3.693-7.4 4.2 2.948-.541 4.216-.384 6.11-1.981.843-.711 1.54-1.65 1.663-1.566 1.572 1.2 3.951.771 3.439-1.3" transform="translate(0 -81.201)" style="fill:#050605"/>
        <path data-name="Path 128" d="M35.242 133.194a1.372 1.372 0 0 1 1.446.215c-.211.161-1.17.415-1.494.107a.194.194 0 0 1 .048-.323m3.084 2.109c.242-.814.263-1.249-.492-2.565-.681-1.186-2.117-1.787-2.871-.357a2.916 2.916 0 0 0-.3 2.306c.506.745 1.352.315 2.08.146a1.007 1.007 0 0 1 1.067.283c.255.5-1.9 1.71-4.139 2.1a4.54 4.54 0 0 1-3.72-.6c-.983-.854-.814-2.949-.965-4.155l-.412-6.8c-.189-1.054-.131-2.209-.356-3.247a.141.141 0 0 0-.187-.085 3.376 3.376 0 0 0-.294 1.322c-.056 2.482.481 5.066.2 7.824-.572 4.045-4.254 7.15-6.744 8.1a7.993 7.993 0 0 0 4.527-1.9c1.515-1.4 2.225-3.483 2.6-6.12.011.012.047.394.09.91.146 1.7.033 4.709 1.556 5.756 1.27.878 3.442.708 5.272.016 1.767-.67 2.568-1.18 3.089-2.934" transform="translate(-11.703 -68.484)" style="fill:#050605"/>
        <path data-name="Path 129" d="M3.265 132.914c1.245 1.574.6 3.7-.355 5.335a4.658 4.658 0 0 0 1.166-2.159 7.556 7.556 0 0 0-.009-2.818 7.914 7.914 0 0 1 .161-2.253c.154-.39.686-.133.6.477-.011.077-.005.135.083.155.152-.467.459-1.178-.027-1.576a.681.681 0 0 0-.52-.137c-.767.233-.479 2.248-.561 2.452a2.121 2.121 0 0 0-1.282-.951.154.154 0 0 0-.18.105 2.266 2.266 0 0 0-.066.912c.1.235.407.057.627.108.125.03.28.246.362.349" transform="translate(-1.242 -72.647)" style="fill:#050605"/>
        <path data-name="Path 130" d="M89.334 132.374c.383.12.758.433 1.193.537a3.091 3.091 0 0 0 .726-1.215 6.983 6.983 0 0 0-1.271-.668l-.734 1.012a7.131 7.131 0 0 1-1.147-.554c-.066-.03-.1-.037-.139.022l-.657 1.014c-.063.089-.115.2.027.248.489.133.873.5 1.342.654a3.723 3.723 0 0 0 .659-1.05" transform="translate(-48.745 -73.205)" style="fill:#050605"/>
        <path data-name="Path 131" d="M68.531 135.447a1.292 1.292 0 0 1-1.135.792.82.82 0 0 1-.613-.316 6.49 6.49 0 0 1-.626-2.905c-.052-2.925-.411-5.765-.488-8.646-.052-.831-.094-1.782-.187-2.465-.039-.21-.249-.2-.282-.02-.169.878-.123 4.086-.2 6.146-.1 2.94-.409 5.127-2.121 7.674a6.066 6.066 0 0 0-.54-3.675c-1.331-2.617-3.226-4.987-3.949-7.891a1.106 1.106 0 0 0 .308-.321c.387-.725-.13-1.533-.625-2.1-.078-.044-.1-.02-.093.041-.026.594-.984 1.238-.178 1.742a9.075 9.075 0 0 0 .668 3.94c.888 2.174 2.679 4.047 3.644 6.2a3.33 3.33 0 0 1 .424 2.5c-1.258 1.41-2.733 2.013-4.853 2.663 1.723.115 4.4-.357 5.391-1.9a15.357 15.357 0 0 0 2.164-7.065l.032-.038c.318 1.96.185 4.122.51 6.059.187.718.4 1.624 1.194 1.868a1.462 1.462 0 0 0 1.511-.942 7.524 7.524 0 0 0 .643-2.747c-.289-3.351-.779-6.961-.762-10.482a1.682 1.682 0 0 0 .272-.573c.345-.526-.157-1.058-.212-1.581-.163-.226-.268.152-.331.286-.124.338-.56.638-.383 1.029a91.316 91.316 0 0 0 .809 12.727" transform="translate(-32.141 -67.934)" style="fill:#050605"/>
        <path data-name="Path 132" d="M102.166 158.331c.363.17.694.531 1.11.693a3.086 3.086 0 0 0 .883-1.107c-.3-.371-.8-.531-1.169-.833l-.863.9a7.089 7.089 0 0 1-1.063-.7c-.06-.039-.094-.051-.141 0l-.788.918c-.073.077-.141.184-.005.249.467.2.8.612 1.242.829a3.715 3.715 0 0 0 .794-.951" transform="translate(-55.903 -87.761)" style="fill:#050605"/>
        <path data-name="Path 133" d="M161.261 122.6c.376-.545-.171-1.094-.231-1.635-.177-.233-.291.156-.36.3-.135.348-.607.657-.416 1.063a53.128 53.128 0 0 0 .224 6.926 56.746 56.746 0 0 1 .464 7.565c-.048.793-.11 1.682-.093 1.674a6.5 6.5 0 0 0 .692-2.327c.444-3.391-.6-9.116-.576-12.971a1.69 1.69 0 0 0 .3-.591" transform="translate(-89.495 -67.686)" style="fill:#050605"/>
        <path data-name="Path 134" d="M145.172 126.186a5.393 5.393 0 0 1 1.129-1.106.834.834 0 0 0 .4-.632c.019-.071-.008-.106-.075-.071a9.516 9.516 0 0 1-.721.329c-.313.128-.932.288-1.165-.014.093-.132.47-.415.629-.361.094.031.129.159.189.232.086.039.133-.15.147-.207.073-.308.138-.67-.364-.52a1.385 1.385 0 0 0-.67.5 1.187 1.187 0 0 0-.089.171c-.1.267-.22.582.01.811.3.214.71 0 1.021-.043-.076.136-.577.766-.444.907" transform="translate(-80.704 -69.167)" style="fill:#050605"/>
        <path data-name="Path 135" d="M88.6 141.478a12.342 12.342 0 0 1 2.394-1.694l.139.724a2.505 2.505 0 0 1-2.332 1.02.908.908 0 0 1-.2-.05m23.811.292c.155.113.163.426.375.347.308-1.2.261-2.1-.388-2.169-.809-.079-1.722.858-2.259 1.389a27.043 27.043 0 0 1-4.339 3.835c-1.363.761-1.883-.163-1.221-1.518 1.239-.748 3.826-1.9 4.213-3.261a2.25 2.25 0 0 0-.538-2.109 21.782 21.782 0 0 0-2.762-1.9.6.6 0 0 1-.279-.63c.065-.4.144-.583-.184-.953a1.663 1.663 0 0 0-1.184-.5c.129.468-.609 1.03-.345 1.525.144.266.442.261.709.639a5.126 5.126 0 0 0 2.1 1.8c.742.526 1.692 1.041 1.967 1.912-1.042.638-2.3 1.438-3.345 2.072a32.45 32.45 0 0 1-3.678 2.065c-1.816.488-1.073-1.834-.868-2.635a3.378 3.378 0 0 0 1.3-2.172 2.685 2.685 0 0 0-.8-1.8c-.024-.032-.051-.037-.081 0a6.983 6.983 0 0 0-.643 1.3 4.222 4.222 0 0 1 .621.932c.059.154.061.241.022.295a1.307 1.307 0 0 1-1.161.026 2.379 2.379 0 0 1-.4-.318c-.189-.146-.26-.092-.441.008a22.756 22.756 0 0 0-2.448 1.965c-1.234.86-3.218.938-4-.573a9.484 9.484 0 0 1-.7-2.267 4.44 4.44 0 0 0 1.066-2.195c.005-.152-.07-.174-.141-.055a3.9 3.9 0 0 1-1.026 1.289c-.128-.41-.2-1.959-.542-2.038-.16.411-.253.908-.377 1.224a4.79 4.79 0 0 1 .213 1.336c-.566.413-1.239.742-1.787 1.208a3.967 3.967 0 0 0-1.154 2.636c.037.494.34.678.819.729 1.7.054 1.767-1.4 2.6-1.851.209.572.387 1.161.646 1.7 1.174 2.07 4.094.428 5.206-.784a4.657 4.657 0 0 1 1.363-.983 1.968 1.968 0 0 0 1.659.444c-.091.395-.247.765-.345 1.156a4.124 4.124 0 0 0-.171 2.374c.515.694 1.148.6 1.824.285.892-.419 1.69-1.06 2.56-1.508.094.127-.946 3.844 1.419 2.8 1.852-.819 3.651-3.764 5.385-5.031.528-.386 1.091-.565 1.546-.034" transform="translate(-49.211 -75.134)" style="fill:#050605"/>
        <path data-name="Path 136" d="M63.248 123.576a5.113 5.113 0 0 1 1.069-1.05.794.794 0 0 0 .386-.6c.018-.069-.008-.1-.072-.068a8.385 8.385 0 0 1-.684.31c-.3.124-.884.275-1.105-.013.089-.123.447-.394.6-.341.089.03.121.15.179.22.081.037.126-.142.14-.2.068-.292.131-.635-.347-.493a1.311 1.311 0 0 0-.635.479 1.118 1.118 0 0 0-.085.161c-.1.255-.209.552.008.77.288.2.675.005.971-.041-.074.131-.548.727-.421.861" transform="translate(-34.956 -67.777)" style="fill:#050605"/>
        <path data-name="Path 137" d="M23.671 131.36c-1.6-2.315-3.71-4.324-4.77-6.993a1.044 1.044 0 0 0 .253-.344c.275-.739-.321-1.442-.865-1.915-.081-.034-.1-.005-.085.051.053.568-.774 1.3.058 1.679-.075 4.885 6.277 8.6 6.128 11.4.668-1.138-.026-2.879-.719-3.88" transform="translate(-9.879 -68.311)" style="fill:#050605"/>
        <path data-name="Path 138" d="M293 132.134a4.613 4.613 0 0 0-.252-2.1 1.481 1.481 0 0 0-.239-.488c-.059-.058-.1-.05-.132-.022a1.332 1.332 0 0 0-.13.136c-.184.2-.4.415-.23.67a2.626 2.626 0 0 1 .686 2.437 1.208 1.208 0 0 0 .3-.634" transform="translate(-163.236 -72.362)" style="fill:#050605"/>
        <path data-name="Path 139" d="M277.415 142.033a8.487 8.487 0 0 1 2.727-1.923 1.2 1.2 0 0 0 .815-.792c.048-.115.009-.178-.111-.137-.423.147-.845.269-1.277.379a11.539 11.539 0 0 1-1.249.254c-.5.07-1.014.08-1.269-.373.185-.2.881-.581 1.132-.454.148.075.175.295.258.429.134.085.257-.217.293-.31.193-.493.389-1.084-.486-.952a2.346 2.346 0 0 0-1.234.683 2.12 2.12 0 0 0-.188.266c-.235.42-.5.916-.173 1.351.455.427 1.182.177 1.713.168-.159.211-1.14 1.141-.951 1.41" transform="translate(-154.697 -77.191)" style="fill:#050605"/>
        <path data-name="Path 140" d="M183.876 125.647c-.193-.055-.287.225-.312.379-.075.377 0 .84-.079 1.193-.034.371-.437.673-.647.357a2.116 2.116 0 0 1-.12-1.191c.029-.168-.049-.238-.159-.074a2.618 2.618 0 0 0-.388 1.144c-.741.854-1.255.074-.845-.718a2.329 2.329 0 0 0 .288-.547c.014-.069 0-.167-.068-.1a2.389 2.389 0 0 0-.741 1.558c-.021 1.283.8 1.251 1.459.245.226 1.148 1.1.485 1.381-.152a4.862 4.862 0 0 0 .231-1.942z" transform="translate(-101.013 -70.2)" style="fill:#050605"/>
        <path data-name="Path 141" d="M273.4 137.638a3.99 3.99 0 0 1 2.785.759c.132.134.2.236 0 .366a1.62 1.62 0 0 1-1.383.265c-.541-.147-1.37-.793-1.4-1.39m2.177-3.838a2.635 2.635 0 0 1 .18 1.091 1.788 1.788 0 0 1-1.2.7zm-17.448.605c-.156-.065-.032-.178.062-.264a9.573 9.573 0 0 1 .909-.6 18.152 18.152 0 0 0 1.907-1.369 1.21 1.21 0 0 1 .06.737 2.7 2.7 0 0 1-2.938 1.5m21.169-11.34a2.195 2.195 0 0 0 .177-2.567c-.041-.08-.1-.064-.127.022-.2.574-1.041.959-.637 1.66a9.921 9.921 0 0 0-.161 2.711c.46 3.734.846 6.87 1.065 10.668-.274.406-3.559.647-4.167.629a11.959 11.959 0 0 0 .973-1.752 3.607 3.607 0 0 0-.076-2.271c-.06-.177-.154-.216-.228-.052a10.938 10.938 0 0 1-2.449 3.437 1.78 1.78 0 0 1-1.43-.66c.1-.252.12-.528.228-.767.013-.035-.009-.051-.057-.048-1.114.112-1.6 1.893-2.889 1.419-.322-.171-.052-.454.059-.728.1-.258-.05-.306-.288-.253-1 .315-1.879.9-2.873 1.238-1.6.539-3.653.433-4.345-1.374a7.447 7.447 0 0 1-.46-2.322c-.13-1.051.758-1.5.759-2.356 0-.123-.14-.207-.211-.071a2.886 2.886 0 0 1-.7.962c-.037-.077-.264-1.221-.349-1.66-.01-.066-.086-.113-.126-.007-.122.286-.314.856-.361.952a7.1 7.1 0 0 1 .211 1.294c-.7.555-1.5.965-2.232 1.477a4.307 4.307 0 0 0-1.4 2.567.509.509 0 0 0 .26.6 2.534 2.534 0 0 0 2.229-.232c.805-.366.828-1.307 1.466-1.867a10.144 10.144 0 0 0 .755 2.655c.578.965 2.334 1.182 3.372.958a33.177 33.177 0 0 0 3.42-1.427c.1.188-.124.416-.026.652.191.453.907.509 1.307.333a3.352 3.352 0 0 0 .994-.883c.1-.116.249-.315.4-.3.174.7.934 1.077 1.538 1.287a2.691 2.691 0 0 0 .178 2.635 2.158 2.158 0 0 0 1.872.9c1.665-.28 2.277-2.583 2.213-3.085.952-.24 2.139-.139 2.682-1.161a3.961 3.961 0 0 0 .525-1.738 34.885 34.885 0 0 0-.452-5.805c-.22-1.889-.424-3.78-.64-5.668" transform="translate(-144.031 -67.468)" style="fill:#050605"/>
        <path data-name="Path 142" d="M305 123.069a2.195 2.195 0 0 0 .177-2.567c-.041-.08-.1-.064-.127.022-.2.574-1.041.959-.637 1.66a9.921 9.921 0 0 0-.161 2.711c.46 3.734.846 6.87 1.065 10.668a3.543 3.543 0 0 1-1.6.429v1.294a2.228 2.228 0 0 0 1.849-1.007 3.961 3.961 0 0 0 .525-1.738 34.885 34.885 0 0 0-.452-5.805c-.22-1.889-.424-3.78-.64-5.668" transform="translate(-169.73 -67.431)" style="fill:#050605"/>
        <path data-name="Path 143" d="M295.1 138.944c1.955-.926.568-.2 2.5-1.166a1.131 1.131 0 0 0 .63-1.043c0-.1-.093-.1-.144-.062-.091.051-.142.236-.44.365-1.931.914-.589.214-2.5 1.164a1.139 1.139 0 0 0-.631 1.044c0 .1.093.1.145.06.091-.048.142-.234.439-.362" transform="translate(-164.646 -76.349)" style="fill:#050605"/>
        <path data-name="Path 144" d="M181.852 160.8c.364.17.693.531 1.11.693a3.079 3.079 0 0 0 .884-1.107c-.3-.371-.8-.53-1.17-.832l-.864.9a7.258 7.258 0 0 1-1.063-.7c-.06-.04-.093-.05-.141 0l-.787.917c-.074.079-.14.185-.005.249.466.2.8.612 1.241.829a3.766 3.766 0 0 0 .793-.951" transform="translate(-100.427 -89.139)" style="fill:#050605"/>
        <path data-name="Path 145" d="M169.726 134.118c.363.17.692.531 1.109.693a3.093 3.093 0 0 0 .883-1.108c-.3-.37-.8-.53-1.17-.833l-.863.9a7.2 7.2 0 0 1-1.062-.7c-.061-.038-.094-.049-.14 0l-.788.916c-.074.079-.141.186-.006.25.467.2.8.613 1.241.829a3.772 3.772 0 0 0 .8-.951" transform="translate(-93.651 -74.233)" style="fill:#050605"/>
        <path data-name="Path 146" d="M168.626 134.831a11.743 11.743 0 0 1 2.248-1.616l.137.683a2.368 2.368 0 0 1-2.2.98.855.855 0 0 1-.189-.046m33.034.377c-.032-.043-.061-.09-.092-.136a1.4 1.4 0 0 1 .167-.09c.422-.2 1.164-.345 1.216.189.016.18-.134.3-.308.36a.863.863 0 0 1-.983-.323m.981-1.825a3.224 3.224 0 0 0-1.379.753l-.016.013a42.33 42.33 0 0 0-.477-5.413c-.22-1.889-.424-3.78-.64-5.668a2.2 2.2 0 0 0 .177-2.567c-.042-.08-.1-.064-.127.021-.2.574-1.041.96-.636 1.66a9.883 9.883 0 0 0-.161 2.711c.433 3.522.8 6.513 1.026 10.03-.555.471-2.105 1.4-2.661.523-1.08-1.7-1.377-10.259-1.845-12.378a2.2 2.2 0 0 0 .179-2.567c-.042-.08-.1-.064-.128.021-.2.574-1.04.96-.636 1.66a9.9 9.9 0 0 0-.161 2.711c.426 3.461.81 6.273 1.037 9.707a3.065 3.065 0 0 1-.4.845c-.607.729-1.927 1.113-2.029.147a1.355 1.355 0 0 0 .915-.724c.245-.461.368-1.011-.014-1.356a6.194 6.194 0 0 0-2.8-.861c-3.8-.051-8.539 1.161-12.31.85-.241-.021-1.829-.219-1.384-.707a10.794 10.794 0 0 1 3.857-2.689 5.593 5.593 0 0 1 2.117-.572.5.5 0 0 1 .364.307c.279-.069 1.033-1.058.757-1.4a.7.7 0 0 0-.729-.153 12.051 12.051 0 0 0-6.553 4.049 2.871 2.871 0 0 0-.808 1.6c.081.7.835.782 1.4.835 2.759.268 8.9-.71 11.832-.888a4.566 4.566 0 0 1 2.867.608 60.634 60.634 0 0 1-7.4 1.223 38.736 38.736 0 0 1-8.291.283c-.381-.049-1.94-.095-1.7-.68.047-.12.122-.25.16-.381.124-.416-.147-.425-.451-.283-.4.182-.686.633-1.111.813a1.582 1.582 0 0 1-2.319-.8 8.818 8.818 0 0 1-.678-2.137 4.164 4.164 0 0 0 .99-2.08c0-.142-.066-.163-.133-.049a3.665 3.665 0 0 1-.96 1.222c-.123-.385-.2-1.848-.526-1.919-.147.389-.231.86-.345 1.158a4.618 4.618 0 0 1 .209 1.261c-.531.392-1.166.707-1.679 1.152a3.749 3.749 0 0 0-1.072 2.5c.039.465.325.637.778.68 1.606.039 1.661-1.331 2.444-1.766.2.541.373 1.095.621 1.6.926 1.6 2.524.651 3.355-.057a1.588 1.588 0 0 0 .684.8 3.76 3.76 0 0 0 1.526.359c4.26.418 12.362-.726 15.878-1.681a1.281 1.281 0 0 0-.017.185c-.007 1.009.529 2.128 1.723 1.68a3.915 3.915 0 0 0 1.425-2.212c.309 1.052.743 1.86 1.928 1.92 1.385.069 1.988-1.257 2.386-1.474.211.275.3.665.521.934a.944.944 0 0 0 .89.3c.771-.226.945-.92 1.192-1.563a2.764 2.764 0 0 0 .248-1.746.757.757 0 0 0-.91-.351" transform="translate(-94.171 -67.435)" style="fill:#050605"/>
        <path data-name="Path 147" d="M251.073 138.153c1.779-2.5.337-12.056-.01-15.084a2.2 2.2 0 0 0 .177-2.567c-.042-.08-.1-.064-.128.022-.2.574-1.041.959-.636 1.66a9.86 9.86 0 0 0-.192 2.711c.407 3.313.643 6.155.87 9.406a15.936 15.936 0 0 1-.082 3.852" transform="translate(-139.793 -67.441)" style="fill:#050605"/>
        <path data-name="Path 148" d="M179.088 123.2c2.665-.871.769-.2 3.4-1.1a1.217 1.217 0 0 0 .926-.933c.006-.084-.114-.084-.184-.049a2.223 2.223 0 0 1-.614.331c-2.633.864-2.066.681-3.4 1.1a1.219 1.219 0 0 0-.927.933c-.007.083.112.083.185.047a2.275 2.275 0 0 1 .613-.331" transform="translate(-99.626 -67.655)" style="fill:#050605"/>
        <path data-name="Path 149" d="M221.26 136.962a4.626 4.626 0 0 0-.009-2.113 1.5 1.5 0 0 0-.182-.512c-.052-.064-.089-.06-.128-.037a1.067 1.067 0 0 0-.146.12c-.2.174-.442.366-.3.639a2.625 2.625 0 0 1 .4 2.5c.186-.095.329-.479.367-.6" transform="translate(-123.142 -75.033)" style="fill:#050605"/>
        <path data-name="Path 150" d="M259.6 131.81c.363.17.692.532 1.109.694a3.063 3.063 0 0 0 .883-1.108c-.3-.371-.8-.531-1.169-.831l-.863.9a7.2 7.2 0 0 1-1.063-.7c-.06-.039-.093-.051-.138 0l-.788.917c-.075.081-.141.185-.006.249.467.2.8.614 1.243.829a3.743 3.743 0 0 0 .793-.951" transform="translate(-144.199 -72.944)" style="fill:#050605"/>
        <path data-name="Path 151" d="M184.442 141.587a3.247 3.247 0 0 0-.008-1.609 1.086 1.086 0 0 0-.151-.39c-.043-.049-.073-.047-.105-.028a1.231 1.231 0 0 0-.121.091c-.167.132-.366.279-.252.487a1.869 1.869 0 0 1 .333 1.9c.154-.072.273-.364.3-.454" transform="translate(-102.651 -77.966)" style="fill:#050605"/>
        <path data-name="Path 152" d="M315.241 122.253c.376-.543-.169-1.092-.229-1.633-.177-.233-.293.155-.361.294-.135.348-.608.659-.415 1.064a52.967 52.967 0 0 0 .224 6.925 56.671 56.671 0 0 1 .464 7.564c-.049.8-.111 1.683-.094 1.675a6.486 6.486 0 0 0 .692-2.327c.446-3.392-.595-9.115-.575-12.97a1.677 1.677 0 0 0 .3-.592" transform="translate(-175.511 -67.494)" style="fill:#050605"/>
        <path data-name="Path 153" d="M281.538 160.8c.364.17.693.531 1.11.693a3.072 3.072 0 0 0 .883-1.107c-.3-.371-.8-.53-1.169-.832l-.864.9a7.321 7.321 0 0 1-1.062-.7c-.061-.04-.093-.05-.14 0l-.789.917c-.074.079-.141.185 0 .249.466.2.8.612 1.242.829a3.761 3.761 0 0 0 .792-.951" transform="translate(-156.312 -89.139)" style="fill:#050605"/>
        <path data-name="Path 154" d="M126.387 128.3c.763-.385 1.876-1.028 1.944-1.994.029-.413-.373-.413-.6-.213a1.208 1.208 0 0 0-.321.657c-.025.279.111.309.329.188a.539.539 0 0 0 .188-.177c.186.183-1.352 1.388-1.542 1.539" transform="translate(-70.605 -70.374)" style="fill:#050605"/>
        <path data-name="Path 155" d="M199.258 161.48c3.155-1.031.91-.231 4.03-1.3a1.441 1.441 0 0 0 1.1-1.1c.007-.1-.133-.1-.218-.059a2.6 2.6 0 0 1-.726.394c-3.117 1.021-2.447.806-4.029 1.3a1.436 1.436 0 0 0-1.095 1.1c-.008.1.132.1.217.059a2.649 2.649 0 0 1 .725-.394" transform="translate(-110.825 -88.834)" style="fill:#050605"/>
        <path data-name="Path 156" d="M272.634 126.6c1.345-.428 2.528-.829 3.73-1.188a78.473 78.473 0 0 0 5.262-1.6 1.053 1.053 0 0 0 .713-.886c.011-.089-.073-.1-.124-.074-.092.034-.162.2-.452.281-1.858.591-3.4 1.131-5.123 1.576l-.274.071q-1.809.527-3.6 1.138a1.061 1.061 0 0 0-.711.886c-.01.089.073.1.125.075.09-.034.16-.2.452-.282" transform="translate(-152.243 -68.645)" style="fill:#050605"/>
        <path data-name="Path 157" d="M268.272 124.062a4.6 4.6 0 0 0-.252-2.1 1.469 1.469 0 0 0-.24-.487c-.058-.06-.095-.051-.131-.023a1.218 1.218 0 0 0-.13.137c-.184.194-.4.413-.229.669a2.628 2.628 0 0 1 .685 2.438 1.2 1.2 0 0 0 .3-.636" transform="translate(-149.578 -67.852)" style="fill:#050605"/>
        <path data-name="Path 158" d="M131.553 134.624a5.549 5.549 0 0 1 1.128-.057l.039.021c-.218.364-.629.64-.854.981.4-.175 1.252-.956 1.2-1.418-.02-.1-.052-.149-.169-.165a5.115 5.115 0 0 0-1.216.02c-.518.058-.583.447-.694.9-.031.125.057.11.1.055a.548.548 0 0 1 .464-.336" transform="translate(-73.174 -74.836)" style="fill:#050605"/>
        <path data-name="Path 159" d="M104.577 135.779c-.193-.056-.286.224-.312.379-.073.377 0 .84-.078 1.193-.034.371-.438.674-.647.357a2.118 2.118 0 0 1-.121-1.192c.031-.168-.048-.238-.158-.073a2.605 2.605 0 0 0-.388 1.145c-.742.853-1.255.073-.845-.721a2.27 2.27 0 0 0 .287-.545c.014-.068 0-.167-.067-.1a2.381 2.381 0 0 0-.741 1.557c-.023 1.284.8 1.252 1.457.247.226 1.148 1.1.485 1.382-.154a4.866 4.866 0 0 0 .231-1.941z" transform="translate(-56.711 -75.861)" style="fill:#050605"/>
        <path data-name="Path 160" d="M99.789 133.327c2.665-.873.769-.2 3.4-1.1a1.22 1.22 0 0 0 .927-.933c0-.084-.113-.084-.185-.048a2.332 2.332 0 0 1-.613.332c-2.634.861-2.068.679-3.4 1.1a1.212 1.212 0 0 0-.925.932c-.007.084.111.084.182.049a2.3 2.3 0 0 1 .614-.331" transform="translate(-55.315 -73.315)" style="fill:#050605"/>
        <path data-name="Path 161" d="M124.976 206.941c0-.952-.088-1.053-.593-1.1l-.21-.012c-.056-.031-.034-.189.014-.215.5.02.789.026 1.15.026s.638-.006.98-.026c.052.026.071.184.014.215l-.124.012c-.506.072-.521.193-.521 1.1v3.186a4.582 4.582 0 0 1-.208 1.675 1.872 1.872 0 0 1-1.688 1.238c-.111 0-.364-.011-.364-.178 0-.152.124-.4.3-.4a.958.958 0 0 1 .326.054 1.271 1.271 0 0 0 .357.064.358.358 0 0 0 .344-.232 7.554 7.554 0 0 0 .225-2.15z" transform="translate(-68.955 -114.949)" style="fill:#050605"/>
        <path data-name="Path 162" d="M131.559 209.379a2.677 2.677 0 0 1 2.76-2.734 2.548 2.548 0 0 1 2.683 2.66 2.649 2.649 0 0 1-2.683 2.7 2.607 2.607 0 0 1-2.76-2.626m4.67.166c0-1.277-.572-2.659-2.049-2.659-.8 0-1.843.545-1.843 2.259 0 1.135.56 2.614 2.077 2.614.93 0 1.815-.695 1.815-2.215" transform="translate(-73.515 -115.518)" style="fill:#050605"/>
        <path data-name="Path 163" d="M145.886 208.065c0-.737-.019-.869-.342-.9l-.249-.03c-.056-.043-.056-.172.012-.192.431-.044.968-.064 1.722-.064a2.783 2.783 0 0 1 1.294.232 1.165 1.165 0 0 1 .641 1.086 1.445 1.445 0 0 1-.971 1.3c-.033.05 0 .12.046.184a8.271 8.271 0 0 0 1.556 2.059.979.979 0 0 0 .529.219c.034.013.049.079.014.1a1.179 1.179 0 0 1-.35.043c-.657 0-1.049-.193-1.6-.974-.2-.3-.525-.823-.757-1.165a.548.548 0 0 0-.554-.257c-.345 0-.352 0-.352.171v.979c0 .81.007.9.455.969l.166.021c.045.043.018.166-.018.193a16.417 16.417 0 0 0-1.888 0 .149.149 0 0 1-.008-.193l.2-.021c.441-.051.46-.159.46-.969zm.639 1.113a.823.823 0 0 0 .017.255c.026.026.143.035.527.035a1.345 1.345 0 0 0 .8-.2 1.252 1.252 0 0 0-.853-2.156c-.478 0-.5.029-.5.247z" transform="translate(-81.135 -115.645)" style="fill:#050605"/>
        <path data-name="Path 164" d="M157.057 207.9c0-.542-.038-.708-.358-.752l-.17-.022c-.065-.043-.082-.172 0-.192.663-.044 1.28-.063 1.948-.063a4.855 4.855 0 0 1 1.693.231 2.327 2.327 0 0 1 1.579 2.288 2.537 2.537 0 0 1-1.352 2.3 3.846 3.846 0 0 1-1.737.373c-.5 0-1-.069-1.264-.069-.326 0-.6.008-.967.027a.139.139 0 0 1 0-.192l.172-.021c.439-.065.461-.16.461-.969zm.634 2.766a1.423 1.423 0 0 0 .159.839c.169.242.458.32.95.32 1.5 0 2.18-.981 2.18-2.421a2.194 2.194 0 0 0-2.447-2.292 1.657 1.657 0 0 0-.763.11c-.072.037-.078.235-.078.591z" transform="translate(-87.389 -115.646)" style="fill:#050605"/>
        <path data-name="Path 165" d="M172.064 210.089c-.056-.168-.086-.193-.313-.193h-1.181c-.191 0-.231.025-.285.177l-.275.822a2.716 2.716 0 0 0-.176.635c0 .1.047.14.227.16l.266.021a.127.127 0 0 1-.025.192c-.2-.018-.444-.018-.8-.027-.256 0-.542.027-.737.027a.14.14 0 0 1-.023-.192l.258-.021a.513.513 0 0 0 .454-.383c.144-.347.354-.862.7-1.731l.78-2.083a1.1 1.1 0 0 0 .133-.555.873.873 0 0 0 .4-.292.134.134 0 0 1 .119.068c.105.346.224.7.34 1.04l1.051 3.11c.232.666.338.781.665.826l.206.021c.062.043.04.159 0 .192-.307-.018-.594-.027-.941-.027s-.66.027-.879.027a.119.119 0 0 1-.017-.192l.219-.021c.164-.02.274-.063.274-.143a1.523 1.523 0 0 0-.094-.4zm-1.535-.69c-.071.172-.055.176.169.176h.954c.217 0 .238-.021.156-.235l-.413-1.26a5.228 5.228 0 0 0-.174-.493h-.015c-.03.046-.094.229-.2.462z" transform="translate(-94.274 -115.519)" style="fill:#050605"/>
        <path data-name="Path 166" d="M185.291 210.692c0 .237 0 1.152.024 1.359-.013.043-.067.081-.158.081-.087-.136-.312-.4-.982-1.165l-1.8-2.05c-.217-.241-.741-.871-.9-1.046h-.013a1.762 1.762 0 0 0-.036.5v1.683a6.273 6.273 0 0 0 .135 1.609c.05.087.2.131.392.15l.249.021a.151.151 0 0 1-.028.192 16.273 16.273 0 0 0-.9-.025c-.326 0-.528.006-.8.025a.13.13 0 0 1-.006-.192l.2-.021c.189-.019.307-.068.345-.159a7.4 7.4 0 0 0 .1-1.6v-2.228a.74.74 0 0 0-.164-.566.88.88 0 0 0-.472-.179l-.142-.019a.139.139 0 0 1 .015-.189c.322.019.732.019.877.019a2.112 2.112 0 0 0 .356-.019 10.834 10.834 0 0 0 1.323 1.7l.75.849c.531.6.917 1.024 1.277 1.4h.026a.907.907 0 0 0 .027-.327v-1.662a5.58 5.58 0 0 0-.162-1.6c-.043-.061-.166-.109-.48-.155l-.133-.019c-.052-.041-.052-.17.021-.189.359.019.627.019.917.019.328 0 .528 0 .8-.019a.124.124 0 0 1 .01.189l-.112.019c-.246.047-.4.1-.43.163a6.167 6.167 0 0 0-.114 1.589z" transform="translate(-100.75 -115.645)" style="fill:#050605"/>
        <path data-name="Path 167" d="M39.181 178.493c0-.336.035-.377.763-.377a1.731 1.731 0 0 1 1.878 1.817 1.7 1.7 0 0 1-.579 1.46 1.979 1.979 0 0 1-1.211.308 2.691 2.691 0 0 1-.816-.057 1 1 0 0 1-.035-.4zm8.81 7.438c-1.8 1.406-5.336-.008-6.5-3.925-.034-.111-.122-.22-.059-.295a2.15 2.15 0 0 0 1.461-1.958 1.74 1.74 0 0 0-.965-1.65 4.131 4.131 0 0 0-1.957-.357c-1.165 0-1.975.035-2.631.092a.2.2 0 0 0-.023.3l.373.045c.486.047.522.263.522 1.377v3.863c0 1.238-.021 1.387-.7 1.473l-.3.034a.237.237 0 0 0 .023.3 28.008 28.008 0 0 1 2.873 0 .227.227 0 0 0 .021-.3l-.245-.034c-.688-.1-.7-.236-.7-1.473v-1.117c0-.254.017-.265.554-.265a.844.844 0 0 1 .832.38c.364.534.772 1.161 1.045 1.623 1.512 2.532 3.7 3.227 5.768 2.49 0 0 .752-.281.814-.6 0 0-.064-.115-.2 0" transform="translate(-20.528 -99.559)" style="fill:#050605"/>
        <path data-name="Path 168" d="M56.71 185.908c-1.963 0-2.682-1.919-2.682-3.39 0-2.191 1.354-2.908 2.393-2.908 1.909 0 2.626 1.782 2.626 3.435 0 1.97-1.13 2.863-2.337 2.863m-.122.312a3.409 3.409 0 0 0 3.453-3.49 3.27 3.27 0 0 0-3.453-3.417 3.442 3.442 0 0 0-3.56 3.521 3.366 3.366 0 0 0 3.56 3.386" transform="translate(-29.636 -100.424)" style="fill:#050605"/>
        <path data-name="Path 169" d="M71.46 184.687c0 1.074.072 1.222.6 1.265l.379.04a.187.187 0 0 1-.019.246c-.617-.019-.959-.04-1.353-.04-.42 0-.785.021-1.312.04a.2.2 0 0 1-.023-.246l.313-.04c.579-.061.6-.191.6-1.265v-.512a2.072 2.072 0 0 0-.317-1.241l-1.186-2.292c-.342-.663-.5-.711-.794-.762l-.279-.049a.187.187 0 0 1 .029-.253 18.877 18.877 0 0 0 2.23 0c.082.034.082.2.02.253l-.119.009c-.355.065-.429.108-.429.181a5.39 5.39 0 0 0 .307.778c.377.737.745 1.524 1.136 2.217.3-.53.641-1.11.942-1.688a9.731 9.731 0 0 0 .649-1.32c0-.06-.187-.129-.423-.168l-.179-.009a.169.169 0 0 1 .018-.253c.363.019.646.034.968.034s.581-.015.916-.034a.166.166 0 0 1 .024.253l-.28.049c-.518.076-.823.718-1.32 1.572l-.633 1.091a2.3 2.3 0 0 0-.467 1.632z" transform="translate(-38.02 -100.571)" style="fill:#050605"/>
        <path data-name="Path 170" d="M82.521 181.116c.1-.3.2-.541.223-.594h.026a6.385 6.385 0 0 1 .234.628l.536 1.635c.094.268.074.3-.209.3H82.1c-.288 0-.293 0-.2-.23zm1.784 3.983a1.84 1.84 0 0 1 .131.524c0 .1-.146.165-.353.184l-.293.04a.155.155 0 0 0 .027.246c.287-.007.669-.04 1.144-.04.457 0 .791.021 1.213.04.045-.047.075-.2 0-.246l-.276-.04c-.429-.047-.553-.191-.851-1.058l-1.366-4.015c-.145-.445-.3-.9-.441-1.343-.015-.064-.084-.077-.147-.077a1.237 1.237 0 0 1-.526.372c.039.16-.034.347-.165.7l-1.023 2.7c-.414 1.128-.694 1.773-.868 2.235a.664.664 0 0 1-.609.487l-.33.04a.193.193 0 0 0 .021.246c.276-.007.638-.04.958-.04.474.021.78.021 1.042.04a.159.159 0 0 0 .016-.246l-.322-.04c-.241-.019-.291-.08-.291-.191a3.4 3.4 0 0 1 .221-.829l.344-1.057c.073-.211.127-.243.389-.243h1.5c.3 0 .335.031.411.255z" transform="translate(-44.45 -100.425)" style="fill:#050605"/>
        <path data-name="Path 171" d="M95.966 181.111c0-1.056-.013-1.215-.646-1.27l-.252-.009a.218.218 0 0 1 .021-.254c.565.019.9.034 1.3.034s.735-.015 1.232-.034c.056.034.083.217.013.254l-.232.009c-.593.055-.6.214-.6 1.27v3.477c0 .632.03.886.21 1.077.1.1.3.226 1.085.226.85 0 1.061-.038 1.221-.13a2.157 2.157 0 0 0 .657-.983c.061-.056.249-.015.249.051a7.832 7.832 0 0 1-.417 1.408 73.465 73.465 0 0 0-2.494-.04h-.92c-.42 0-.732.021-1.3.04a.2.2 0 0 1-.021-.246l.3-.04c.581-.061.593-.191.593-1.25z" transform="translate(-53.105 -100.571)" style="fill:#050605"/>
        <path data-name="Path 172" d="M116.155 181.109c0 .3.03.3.372.3h.751a4.543 4.543 0 0 0 .943-.065c.12-.046.217-.107.273-.392l.1-.433c.064-.076.247-.076.288 0 0 .253-.041.706-.041 1.109s.041.827.041 1.077c-.041.069-.21.069-.288 0l-.1-.425a.531.531 0 0 0-.363-.428 3.839 3.839 0 0 0-.85-.053h-.751c-.341 0-.372.011-.372.3v1.54c0 1.171.025 1.332.68 1.385l.377.037c.065.036.047.235-.024.276-.66-.02-1.033-.041-1.48-.041-.485 0-.865.021-1.385.041a.22.22 0 0 1-.018-.276l.27-.037c.648-.076.679-.214.679-1.385v-4c0-1.162-.031-1.325-.679-1.391l-.175-.024c-.068-.042-.039-.242.023-.282.474.03.846.04 1.285.04h2.035a12.836 12.836 0 0 0 1.513-.04c0 .51 0 1.047.034 1.474a.226.226 0 0 1-.276.023c-.088-.5-.214-.883-.767-1.055a6.14 6.14 0 0 0-1.077-.07h-.682c-.333 0-.333.027-.333.453z" transform="translate(-63.849 -99.667)" style="fill:#050605"/>
        <path data-name="Path 173" d="M128.116 181.126c0-1.056-.024-1.23-.614-1.285l-.253-.009c-.058-.037-.034-.22.026-.254.5.019.842.034 1.262.034.394 0 .734-.015 1.241-.034.056.034.077.217.016.254l-.246.009c-.595.055-.617.229-.617 1.285v3.562c0 1.063.022 1.2.617 1.265l.246.04c.061.026.04.206-.016.246-.507-.019-.847-.04-1.241-.04-.42 0-.757.021-1.262.04a.2.2 0 0 1-.026-.246l.253-.04c.591-.066.614-.2.614-1.265z" transform="translate(-71.071 -100.571)" style="fill:#050605"/>
        <path data-name="Path 174" d="M135.608 181.111c0-1.056-.021-1.215-.649-1.27l-.253-.009c-.057-.037-.034-.22.021-.254.557.019.9.034 1.3.034s.725-.015 1.227-.034c.061.034.081.217.022.254l-.24.009c-.592.055-.614.214-.614 1.27v3.477c0 .632.037.886.212 1.077.114.1.294.226 1.1.226.844 0 1.051-.038 1.218-.13a2.127 2.127 0 0 0 .65-.983c.063-.056.243-.015.243.051a7.607 7.607 0 0 1-.414 1.408c-.5-.019-1.444-.04-2.489-.04h-.914c-.421 0-.745.021-1.3.04a.2.2 0 0 1-.021-.246l.3-.04c.584-.061.605-.191.605-1.25z" transform="translate(-75.254 -100.571)" style="fill:#050605"/>
        <path data-name="Path 175" d="M150.436 183.535c.222.466.443.93.684 1.371h.019c.273-.466.52-.989.766-1.5l.95-1.916a5.956 5.956 0 0 0 .763-1.915 6.434 6.434 0 0 0 .742.034c.248 0 .58-.015.889-.034a.216.216 0 0 1 .006.253l-.2.009c-.624.082-.72.26-.7.96.015 1.054.031 2.91.11 4.344.028.5.021.761.5.808l.313.04a.2.2 0 0 1-.022.246c-.409-.02-.823-.041-1.177-.041s-.8.021-1.212.041a.18.18 0 0 1-.021-.246l.289-.04c.495-.047.495-.2.495-.844l-.042-4.164c-.075.1-.449.907-.661 1.289l-.884 1.753c-.448.882-.9 1.816-1.079 2.279-.01.037-.057.037-.1.037 0 0-.069 0-.086-.037-.171-.528-.647-1.506-.876-2l-.9-1.924c-.213-.458-.424-.978-.65-1.444h-.009c-.044.627-.077 1.2-.111 1.778-.019.619-.064 1.5-.064 2.356 0 .731.064.9.452.922l.384.04a.175.175 0 0 1-.017.246c-.342-.02-.727-.041-1.107-.041-.317 0-.672.021-1.025.041-.06-.057-.078-.2-.017-.246l.223-.04c.417-.047.561-.112.609-.817.072-.657.124-1.207.18-2.2.051-.829.087-1.673.11-2.223.016-.636-.059-.763-.671-.871l-.157-.009a.181.181 0 0 1 .034-.253c.309.019.543.034.795.034a7.688 7.688 0 0 0 .83-.034 3.926 3.926 0 0 0 .523 1.654z" transform="translate(-82.046 -100.571)" style="fill:#050605"/>
        <path data-name="Path 176" d="M176.717 178.573a4.717 4.717 0 0 1 3-.95 8.67 8.67 0 0 1 1.961.269.774.774 0 0 0 .3.037c.017.268.078.955.17 1.641a.231.231 0 0 1-.3.018 2.024 2.024 0 0 0-2.276-1.618 3.042 3.042 0 0 0-3.151 3.371 3.279 3.279 0 0 0 3.3 3.619 2.382 2.382 0 0 0 2.325-1.581.221.221 0 0 1 .286.044 4.018 4.018 0 0 1-.533 1.517 2.775 2.775 0 0 0-.4.108 6.215 6.215 0 0 1-1.745.257 4.892 4.892 0 0 1-2.762-.746 3.585 3.585 0 0 1-1.571-3.055 3.68 3.68 0 0 1 1.4-2.929" transform="translate(-97.983 -99.491)" style="fill:#050605"/>
        <path data-name="Path 177" d="M196.187 185.908c-1.971 0-2.691-1.919-2.691-3.39 0-2.191 1.353-2.908 2.389-2.908 1.909 0 2.635 1.782 2.635 3.435 0 1.97-1.14 2.863-2.333 2.863m-.139.312a3.412 3.412 0 0 0 3.471-3.49 3.277 3.277 0 0 0-3.471-3.417 3.435 3.435 0 0 0-3.552 3.521 3.362 3.362 0 0 0 3.552 3.386" transform="translate(-107.582 -100.424)" style="fill:#050605"/>
        <path data-name="Path 178" d="M211.635 183.535c.244.466.457.93.7 1.371h.015c.262-.466.521-.989.771-1.5l.942-1.916a5.491 5.491 0 0 0 .757-1.915 6.685 6.685 0 0 0 .751.034c.249 0 .583-.015.89-.034a.233.233 0 0 1 .013.253l-.216.009c-.627.082-.71.26-.693.96.011 1.054.02 2.91.1 4.344.032.5.01.761.485.808l.335.04a.187.187 0 0 1-.027.246c-.411-.02-.818-.041-1.178-.041s-.8.021-1.206.041a.181.181 0 0 1-.027-.246l.289-.04c.482-.047.482-.2.482-.844l-.021-4.164h-.021c-.062.1-.448.907-.646 1.289l-.887 1.753c-.455.882-.907 1.816-1.089 2.279-.012.037-.052.037-.1.037 0 0-.071 0-.091-.037-.169-.528-.649-1.506-.878-2l-.9-1.924c-.214-.458-.416-.978-.638-1.444h-.023c-.034.627-.077 1.2-.1 1.778-.037.619-.061 1.5-.061 2.356 0 .731.046.9.437.922l.381.04a.162.162 0 0 1-.013.246 18.68 18.68 0 0 0-1.106-.041c-.311 0-.674.021-1.022.041-.056-.057-.08-.2-.018-.246l.215-.04c.428-.047.566-.112.626-.817.064-.657.1-1.207.17-2.2.049-.829.092-1.673.113-2.223.019-.636-.064-.763-.673-.871l-.159-.009a.191.191 0 0 1 .036-.253c.3.019.542.034.8.034a7.469 7.469 0 0 0 .821-.034 3.981 3.981 0 0 0 .525 1.654z" transform="translate(-116.26 -100.571)" style="fill:#050605"/>
        <path data-name="Path 179" d="M232 183.535c.229.466.445.93.679 1.371h.026c.263-.466.513-.989.771-1.5l.939-1.916a5.5 5.5 0 0 0 .76-1.915 6.534 6.534 0 0 0 .744.034c.258 0 .575-.015.892-.034a.211.211 0 0 1 .012.253l-.216.009c-.627.082-.713.26-.688.96.017 1.054.022 2.91.1 4.344.026.5.024.761.488.808l.327.04a.194.194 0 0 1-.028.246c-.408-.02-.821-.041-1.187-.041-.336 0-.792.021-1.2.041a.19.19 0 0 1-.017-.246l.292-.04c.487-.047.487-.2.487-.844l-.024-4.164h-.031c-.06.1-.441.907-.642 1.289l-.891 1.753c-.45.882-.894 1.816-1.076 2.279-.022.037-.057.037-.1.037a.113.113 0 0 1-.092-.037 20.109 20.109 0 0 0-.883-2l-.9-1.924c-.2-.458-.415-.978-.642-1.444h-.009a79.91 79.91 0 0 0-.1 1.778c-.034.619-.076 1.5-.076 2.356 0 .731.058.9.45.922l.377.04a.171.171 0 0 1 0 .246 19.71 19.71 0 0 0-1.116-.041c-.329 0-.674.021-1.028.041-.056-.057-.077-.2-.006-.246l.214-.04c.432-.047.555-.112.62-.817.057-.657.113-1.207.166-2.2.056-.829.1-1.673.116-2.223.015-.636-.059-.763-.68-.871l-.15-.009a.19.19 0 0 1 .038-.253c.3.019.544.034.792.034a7.673 7.673 0 0 0 .833-.034 3.663 3.663 0 0 0 .521 1.654z" transform="translate(-127.635 -100.571)" style="fill:#050605"/>
        <path data-name="Path 180" d="M249.912 181.126c0-1.056-.024-1.23-.609-1.285l-.254-.009c-.058-.037-.04-.22.021-.254.5.019.842.034 1.257.034s.737-.015 1.244-.034c.061.034.074.217.013.254l-.241.009c-.591.055-.613.229-.613 1.285v3.562c0 1.063.021 1.2.613 1.265l.241.04c.061.026.048.206-.013.246-.506-.019-.84-.04-1.244-.04s-.755.021-1.257.04a.193.193 0 0 1-.021-.246l.254-.04c.584-.066.609-.2.609-1.265z" transform="translate(-139.116 -100.571)" style="fill:#050605"/>
        <path data-name="Path 181" d="M258.445 186.22a3.082 3.082 0 0 1-1.554-.374 4.659 4.659 0 0 1-.266-1.4c.047-.061.2-.093.241-.023a1.8 1.8 0 0 0 1.716 1.483 1.135 1.135 0 0 0 1.246-1.148 1.5 1.5 0 0 0-.815-1.4l-.947-.618a2.152 2.152 0 0 1-1.079-1.727c0-.943.743-1.7 2.036-1.7a3.682 3.682 0 0 1 .926.119 1.742 1.742 0 0 0 .356.065 4.628 4.628 0 0 1 .176 1.211c-.041.061-.208.09-.255.03a1.3 1.3 0 0 0-1.355-1.129 1.045 1.045 0 0 0-1.187 1.113 1.594 1.594 0 0 0 .848 1.232l.8.5a2.222 2.222 0 0 1 1.249 1.91 1.882 1.882 0 0 1-2.131 1.855" transform="translate(-143.721 -100.424)" style="fill:#050605"/>
        <path data-name="Path 182" d="M269.366 186.22a3.149 3.149 0 0 1-1.575-.374 4.981 4.981 0 0 1-.257-1.4c.046-.061.2-.093.235-.023a1.828 1.828 0 0 0 1.722 1.483 1.133 1.133 0 0 0 1.25-1.148 1.5 1.5 0 0 0-.824-1.4l-.945-.618a2.143 2.143 0 0 1-1.084-1.727c0-.943.741-1.7 2.045-1.7a3.655 3.655 0 0 1 .926.119 1.681 1.681 0 0 0 .347.065 4.305 4.305 0 0 1 .181 1.211c-.042.061-.2.09-.247.03a1.307 1.307 0 0 0-1.365-1.129 1.039 1.039 0 0 0-1.18 1.113 1.608 1.608 0 0 0 .844 1.232l.8.5a2.237 2.237 0 0 1 1.245 1.91 1.879 1.879 0 0 1-2.123 1.855" transform="translate(-149.746 -100.424)" style="fill:#050605"/>
        <path data-name="Path 183" d="M279.272 181.126c0-1.056-.016-1.23-.607-1.285l-.252-.009a.206.206 0 0 1 .02-.254c.5.019.839.034 1.266.034.394 0 .738-.015 1.233-.034.059.034.09.217.022.254l-.236.009c-.606.055-.625.229-.625 1.285v3.562c0 1.063.018 1.2.625 1.265l.236.04c.067.026.037.206-.022.246-.494-.019-.839-.04-1.233-.04-.427 0-.763.021-1.266.04a.194.194 0 0 1-.02-.246l.252-.04c.591-.066.607-.2.607-1.265z" transform="translate(-155.734 -100.571)" style="fill:#050605"/>
        <path data-name="Path 184" d="M288.772 185.908c-1.967 0-2.682-1.919-2.682-3.39 0-2.191 1.337-2.908 2.389-2.908 1.9 0 2.634 1.782 2.634 3.435 0 1.97-1.135 2.863-2.341 2.863m-.129.312a3.406 3.406 0 0 0 3.464-3.49 3.279 3.279 0 0 0-3.464-3.417 3.45 3.45 0 0 0-3.561 3.521 3.367 3.367 0 0 0 3.561 3.386" transform="translate(-159.436 -100.424)" style="fill:#050605"/>
        <path data-name="Path 185" d="M307.463 184.5c0 .306 0 1.491.03 1.749-.012.064-.075.116-.185.116-.121-.176-.406-.523-1.283-1.516l-2.322-2.633c-.262-.311-.943-1.129-1.156-1.349h-.023a2.913 2.913 0 0 0-.045.655v2.178a7.73 7.73 0 0 0 .186 2.059c.064.111.259.172.509.191l.311.04a.18.18 0 0 1-.029.246c-.442-.019-.791-.04-1.157-.04-.432 0-.7.021-1.052.04a.186.186 0 0 1-.018-.246l.267-.04c.227-.019.4-.087.452-.191a10.145 10.145 0 0 0 .122-2.059v-2.89a.882.882 0 0 0-.227-.716 1.057 1.057 0 0 0-.613-.253l-.172-.009c-.048-.054-.048-.213.028-.253.412.034.954.034 1.127.034a3.257 3.257 0 0 0 .454-.034 15.129 15.129 0 0 0 1.711 2.2l.973 1.087a32.391 32.391 0 0 0 1.656 1.8h.016a1.036 1.036 0 0 0 .037-.412v-2.135a7.109 7.109 0 0 0-.2-2.078c-.064-.09-.219-.151-.618-.206l-.173-.009c-.064-.054-.064-.22.023-.253.456.019.793.034 1.174.034.433 0 .7-.015 1.029-.034a.174.174 0 0 1 .025.253l-.15.009c-.313.055-.509.139-.549.214a8.084 8.084 0 0 0-.154 2.069z" transform="translate(-168.239 -100.571)" style="fill:#050605"/>
        <path data-name="Path 186" d="M3.095 184.475c0 .666-.039.857.527.857.073 0 .214-.014.214.112s-.064.14-.141.14c-.318 0-.6-.047-.918-.047s-.628.047-.935.047c-.076 0-.14-.013-.14-.14s.128-.112.207-.112c.573 0 .529-.213.529-.857v-5.114c0-.366-.105-.289-.365-.289a1.258 1.258 0 0 0-1.434.91c-.039.069-.1.242-.179.242-.057 0-.087-.048-.087-.124a1.374 1.374 0 0 1 .046-.236l.32-1.335c.021-.076.044-.147.118-.147.046 0 .065.055.065.109.011.092 0 .152.069.221.1.114.278.087.407.087h2.98c.209 0 .408.045.5-.244.022-.082.035-.174.118-.174.116 0 .064.29.064.366L5.029 180c0 .079-.022.176-.106.176-.061 0-.07-.086-.084-.144a3.214 3.214 0 0 0-.243-.7.681.681 0 0 0-.664-.259h-.481c-.356 0-.356-.026-.356.5z" transform="translate(-.207 -99.91)" style="fill:#050605"/>
        <path data-name="Path 187" d="M13.132 181.513c.007.047.026.1.06.1a.141.141 0 0 0 .1-.076 1.4 1.4 0 0 1 1.2-.64 1.076 1.076 0 0 1 .95.491 3 3 0 0 1 .228 1.465v1.627c0 .437-.073.792.37.831.081.018.233 0 .233.142 0 .085-.046.11-.1.11-.265 0-.525-.047-.771-.047-.269 0-.525.047-.773.047-.067 0-.12-.013-.12-.1 0-.153.143-.135.231-.153.439-.04.367-.394.367-.831V182.7a2.356 2.356 0 0 0-.143-1.012.839.839 0 0 0-.774-.464 1.05 1.05 0 0 0-.816.44 1.312 1.312 0 0 0-.24.941v1.867c0 .437-.074.792.371.831.077.018.23 0 .23.142 0 .085-.034.11-.1.11-.267 0-.528-.047-.771-.047-.267 0-.523.047-.786.047-.051 0-.1-.013-.1-.1 0-.153.128-.135.225-.153.437-.04.368-.394.368-.831v-4.661c0-.375.069-.825-.317-.825-.081 0-.21.032-.21-.111a.116.116 0 0 1 .113-.1 1.985 1.985 0 0 0 .737-.321c.039-.035.114-.116.17-.116.081 0 .074.087.074.167z" transform="translate(-6.611 -99.885)" style="fill:#050605"/>
        <path data-name="Path 188" d="M23.122 185.884c-.256 0-.339-.013-.339.319 0 1.149.6 2.137 1.593 2.137.8 0 1.1-.665 1.219-.665.036 0 .049.048.049.077 0 .13-.253.411-.307.467a1.665 1.665 0 0 1-1.291.574 2.135 2.135 0 0 1-1.872-2.353 2.328 2.328 0 0 1 .585-1.7 1.946 1.946 0 0 1 1.478-.69 1.386 1.386 0 0 1 1.184.635 2.2 2.2 0 0 1 .275 1.031c0 .077-.006.173-.091.173zm.674-.248a3.849 3.849 0 0 0 .948-.077.382.382 0 0 0 .3-.415 1.109 1.109 0 0 0-.21-.6.861.861 0 0 0-.714-.317 1.256 1.256 0 0 0-1.065.688 1.642 1.642 0 0 0-.206.587c0 .172.2.136.274.136z" transform="translate(-12.246 -103.038)" style="fill:#050605"/>
        <path data-name="Rectangle 78" style="fill:none" d="M0 0h140.121v98.091H0z"/>
        <path data-name="Path 189" d="M60.25 0a.145.145 0 0 0-.108.078c-.525 1.621-1.131 3.171-1.55 4.828a7.459 7.459 0 0 0 .738.955 6.864 6.864 0 0 1 1.062-.047 7.628 7.628 0 0 0 .947-.031c.207-.339.7-.6.665-1.045L60.374.13c-.013-.082-.057-.125-.108-.13z" transform="translate(9.187 .895)" style="fill:url(#kv9uc8sm4a)"/>
        <path data-name="Path 190" d="M62.3 3.069a9.934 9.934 0 0 0-.1 1.87 8.119 8.119 0 0 0 .085 1.1.77.77 0 0 0 .669.368c.19-.017.484.034.49-.171a32.637 32.637 0 0 0-1.081-3.213z" transform="translate(7.192 -.774)" style="fill:url(#kv9uc8sm4a)"/>
        <path data-name="Path 191" d="M61.353 13.695h-.125c-.283.089-.669.044-.757.4.16.287.479.261.786.235a2.2 2.2 0 0 1 .351-.013c.115.053.1.206.12.313-.018.2-.266.251-.3.41.41-.008.706-.383.966-.649.075-.09-.015-.188-.024-.267a1.161 1.161 0 0 0-1.012-.429z" transform="translate(8.148 -6.668)" style="fill:url(#kv9uc8sm4a)"/>
        <path data-name="Path 192" d="M58.785 16.551c-.692.353-1.236-.232-1.747-.57a4.16 4.16 0 0 0-1.7.306 11.026 11.026 0 0 1 2.824 3.156l.087.16a3.6 3.6 0 0 1 .471-.768 9.179 9.179 0 0 1 2.865-2.809 6.019 6.019 0 0 0-1.593-.219c-.435.171-.734.628-1.206.742" transform="translate(10.986 -7.835)" style="fill:url(#kv9uc8sm4a)"/>
        <path data-name="Path 193" d="M59.482 16.18a9.022 9.022 0 0 0-3.777 4.029.2.2 0 0 1-.146-.05 9.959 9.959 0 0 0-3.807-3.887 1.4 1.4 0 0 0-1.2.071.416.416 0 0 0 .128.006.138.138 0 0 1 .147.051c2.233.739 3.8 3.062 4.83 5.013.032.023.063-.006.094-.026a10.769 10.769 0 0 1 2.7-3.849 5.273 5.273 0 0 1 2.424-1.371V16.1a1.247 1.247 0 0 0-.523-.1 2.484 2.484 0 0 0-.869.178" transform="translate(13.631 -7.942)" style="fill:url(#kv9uc8sm4a)"/>
        <path data-name="Path 194" d="M59.167 17.313c-2.036.882-3.472 3.009-4.328 4.9.011.341.134.685-.041.977.245.251.017.569-.023.844.216.235.059.616.023.9a2.145 2.145 0 0 1 .149.455c-.1.238-.229.523.011.728a1 1 0 0 1-.16.739.767.767 0 0 1 .193.324.583.583 0 0 1-.2.585c0 .188.281.294.27.5a.973.973 0 0 1-.26.63l.26.336c.115.29-.066.524-.23.729.191.094.212.291.3.448a.921.921 0 0 1-.184.571c-.067.238.217.372.225.6a1.274 1.274 0 0 1-.255.664 1.805 1.805 0 0 1 .293.649c0 .307-.33.541-.591.659a.708.708 0 0 1-.619-.177.979.979 0 0 1-.334-.687 1.42 1.42 0 0 1 .279-.407c.1-.225-.221-.367-.236-.588a.811.811 0 0 1 .32-.591c-.064-.185-.257-.286-.268-.478a.512.512 0 0 1 .173-.535c.2-.212-.134-.338-.15-.516-.143-.271.159-.453.244-.676a.955.955 0 0 1-.244-.514c-.046-.176.11-.318.244-.451.072-.18-.137-.254-.171-.394-.144-.278.033-.524.171-.723-.084-.3-.32-.652 0-.911.1-.278-.3-.412-.171-.711.521-.317-.284-.7.11-1.033.343-.272-.289-.516.032-.836.2-.306-.258-.563 0-.836a9.318 9.318 0 0 0-3.014-4.009 3.817 3.817 0 0 0-2.65-.977c-.1 0-.108.087-.159.129a10.6 10.6 0 0 1 1.551 1.07 11.25 11.25 0 0 1 3.369 7.31 17.883 17.883 0 0 1-.754 6.63l.043.094 2.136 1.866 2.1-1.934a17.92 17.92 0 0 1-.831-6.17s-.028-.172 0-.2a12.744 12.744 0 0 1 2.014-6.22 10.581 10.581 0 0 1 1.734-1.976 10.378 10.378 0 0 1 1.223-.7 1.5 1.5 0 0 0-.827-.217 2.575 2.575 0 0 0-.767.124" transform="translate(14.944 -8.598)" style="fill:url(#kv9uc8sm4a)"/>
        <path data-name="Path 195" d="M58.859 18.246c-2.3 1.135-3.512 3.6-4.129 5.86a15.18 15.18 0 0 0 .433 9.053c-.724.763-1.559 1.45-2.334 2.194l-.161.1a26.37 26.37 0 0 1-2.492-2.124A25.438 25.438 0 0 0 51 28.87a10.23 10.23 0 0 1 .044-1.241c-.193-3.381-1.2-6.742-4-8.745l-.69-.437c-.459-.035-1.044-.286-1.5-.035a5.6 5.6 0 0 1 2.055 1.078l.091.11a10.667 10.667 0 0 1 .866.916 12.738 12.738 0 0 1 2.425 7.029 20.793 20.793 0 0 1-.979 5.98c1.034.821 2.043 1.588 3.022 2.477.124.062.151-.109.237-.159.111-.108.18-.04.25.027.048.048.1.1.161.084.975-.884 1.993-1.774 3.041-2.574l.028-.114c-1.38-3.333-1.546-7.94.134-11.17a7.893 7.893 0 0 1 1.861-2.549 5.548 5.548 0 0 1 2.219-1.375 1.268 1.268 0 0 0-.552-.115 2.24 2.24 0 0 0-.855.189" transform="translate(16.778 -9.077)" style="fill:url(#kv9uc8sm4a)"/>
        <path data-name="Path 196" d="M32.77 20.084c-.211.1-.48.06-.664.232a.723.723 0 0 0-.494.129.783.783 0 0 1-.429.136 2.544 2.544 0 0 1-.741.386c-.052.094-.121.217-.224.237-.223.087-.51.049-.579.337-.154.223-.418.184-.658.267a.693.693 0 0 1-.508.5l-.1.419c-.076.217-.316.238-.49.335-.045.231-.017.518-.223.658-.309.026-.214.362-.219.57-.025.2-.264.268-.4.369-.11.144.086.225.073.365a.743.743 0 0 1-.316.5c-.074.181.118.318.08.505a.58.58 0 0 1-.218.456c-.1.108.048.186.064.275.178.284-.039.588-.138.82l.2.3a1.071 1.071 0 0 1-.124.736l.229.36c.123.33-.281.72.152.861.082.176.193.387.086.568 0 .159-.086.359.14.374.065.194.27.365.159.589-.094.252.175.278.3.43.227.21.133.591.144.842l.393.4a.755.755 0 0 1 .034.54c-.016.229.282.219.363.394a.792.792 0 0 1 .1.635c0 .227.266.227.375.361.221.2.047.5.1.733a1.083 1.083 0 0 1 .529.591.766.766 0 0 1-.222.711.682.682 0 0 1-.5.146.884.884 0 0 1-.524-.317.8.8 0 0 1-.141-.71c-.238-.284-.6-.5-.485-.914-.18-.313-.75-.648-.455-1.114-.055-.066-.09-.161-.181-.192a.843.843 0 0 1-.289-.884c-.074-.124-.252-.182-.315-.291a.775.775 0 0 1-.1-.775c-.12-.145-.321-.265-.365-.421-.166-.2-.017-.44-.023-.669-.177-.187-.432-.444-.372-.746.358-.344-.274-.557-.25-.9a.541.541 0 0 1 .145-.417c.158-.21-.18-.294-.217-.492-.137-.283.056-.54.237-.742-.1-.194-.315-.321-.293-.56a1.038 1.038 0 0 1 .378-.543c-.039-.243-.3-.394-.219-.682a1.05 1.05 0 0 1 .42-.393 1.3 1.3 0 0 1-.1-.529c0-.251.248-.378.457-.412a1.37 1.37 0 0 1-.1-.475c.052-.249.3-.333.5-.4a1.616 1.616 0 0 1 .021-.454c.105-.293.433-.3.607-.456a.619.619 0 0 1-.035-.465 6.671 6.671 0 0 0-2.476 4.83c-.027 3.256 1.517 6.055 1.836 9.264l.068.077a26.47 26.47 0 0 1 2.998 1.431l1.329-2.275.036-.167a13.005 13.005 0 0 1-3.18-7.368 6.761 6.761 0 0 1 3.033-6.766 13.61 13.61 0 0 1 2.928-1.388.5.5 0 0 0-.255-.073c-.313 0-.566.314-.89.321" transform="translate(27.99 -10.019)" style="fill:url(#kv9uc8sm4a)"/>
        <path data-name="Path 197" d="M76.732 20.082a.831.831 0 0 0-.6.243c-.045.042-.011.124.058.145a9.545 9.545 0 0 1 3.517 1.345c2.312 1.359 3.1 3.969 2.872 6.6a12.005 12.005 0 0 1-.824 3.024 13.51 13.51 0 0 1-2.489 3.7l-.038.2A19.989 19.989 0 0 1 81.1 38.42a.728.728 0 0 0 .506-.21 14.742 14.742 0 0 0-1.41-2.559c-.377-.265.145-.45.251-.667 2.245-2.815 3.612-6.463 2.427-10.14a7.28 7.28 0 0 0-4.834-4.413 8.208 8.208 0 0 0-1.307-.35" transform="translate(-.633 -10.195)" style="fill:url(#kv9uc8sm4a)"/>
        <path data-name="Path 198" d="M37.158 21.207a6.979 6.979 0 0 0-4.558 4.752 11.1 11.1 0 0 0 0 3.781 12.8 12.8 0 0 0 1.375 3.782 28.981 28.981 0 0 0 1.7 2.5c-.188.409-.476.8-.689 1.2a6.067 6.067 0 0 0-.671 1.533c.12.052.272.2.4.1.514-1 1.178-1.95 1.789-2.9l.017-.18a13 13 0 0 1-3.268-6.508 9.446 9.446 0 0 1-.1-2.312 5.278 5.278 0 0 1 1.23-3.078 7.887 7.887 0 0 1 3.94-2.577 9.64 9.64 0 0 0 .992-.291l-.015-.039-.166-.107a7.166 7.166 0 0 0-1.974.344" transform="translate(23.778 -10.627)" style="fill:url(#kv9uc8sm4a)"/>
        <path data-name="Path 199" d="M23.806 25.627c-1.041 1.625-.92 3.908-.42 5.765a29.714 29.714 0 0 1 1.311 6.82c.923.41 1.882.742 2.791 1.223a12.655 12.655 0 0 0 1.181.639.5.5 0 0 0 .019-.4 26.014 26.014 0 0 0-3.059-1.6c-.4-.219-.349-.737-.421-1.129-.271-1.834-.818-3.566-1.247-5.343-.637-2.332-.652-5.167.976-7a9.194 9.194 0 0 1 2.712-2.302 7.312 7.312 0 0 0-3.843 3.327" transform="translate(29.053 -11.42)" style="fill:url(#kv9uc8sm4a)"/>
        <path data-name="Path 200" d="M93.347 26.178c1.955 4.146-.775 8.12-.892 12.284l-.067.092c-.823.412-1.684.73-2.46 1.2-.334.2-1.21.4-.8.936h.072c1.222-.658 2.435-1.331 3.716-1.866l.132-.132c-.1-3.334 1.637-5.984 1.563-9.315a7.554 7.554 0 0 0-.7-3.071 6.707 6.707 0 0 0-.727-.981 9.336 9.336 0 0 0-1.816-1.614 8.253 8.253 0 0 1 1.974 2.465" transform="translate(-7.831 -12.2)" style="fill:url(#kv9uc8sm4a)"/>
        <path data-name="Path 201" d="M78.313 19.173c-.043 0-.113.054-.073.09a8.467 8.467 0 0 1 5.472 3.482 7.446 7.446 0 0 1 1.055 3.541 12.112 12.112 0 0 1-3.067 8.436l-.044.124 1.2 2.088c.072.158.2.365.427.257.967-.547 1.96-1.048 2.935-1.567.092-.548.054-1.1.157-1.626.392-1.85.9-3.639 1.271-5.5a15.858 15.858 0 0 0 .152-2.315 7.885 7.885 0 0 0-.609-2.313 6.657 6.657 0 0 0-2.52-2.834c.085.115-.066.3.393.383a.8.8 0 0 1 .368.5c-.036.226.209.173.317.278a.7.7 0 0 1 .223.59c.175.152.424.228.531.445a.653.653 0 0 1-.058.555.955.955 0 0 1 .384.316.885.885 0 0 1 .011.655c.073.111.284.183.315.323.182.237-.073.457-.144.647l.254.24c.253.3 0 .614-.09.9l.191.339a1.258 1.258 0 0 1-.237.707 2.047 2.047 0 0 1 .133.544c-.014.282-.251.469-.384.646.146.111.129.3.188.449a1.3 1.3 0 0 1-.447.669l.118.375c.032.338-.27.536-.464.749l.051.274a.649.649 0 0 1-.359.656c-.344.14.13.473-.05.739a.884.884 0 0 1-.573.458c.041.187.177.343.1.543a.58.58 0 0 1-.3.405c-.436.1.073.494-.2.742a.961.961 0 0 1-.477.407.746.746 0 0 1-.136.61.723.723 0 0 1-.58.313.811.811 0 0 1-.647-.432.572.572 0 0 1-.013-.565.609.609 0 0 1 .429-.309c.258-.094-.039-.422.124-.608a.906.906 0 0 1 .514-.4c-.034-.18-.155-.337-.086-.531a.828.828 0 0 1 .593-.467c.041-.214-.2-.4-.1-.628.063-.276.347-.343.553-.451l-.159-.437a.837.837 0 0 1 .531-.628c.032-.115-.043-.193-.065-.3-.111-.229.09-.427.216-.608.508-.083-.043-.462.1-.728.027-.223.3-.357.472-.476.012-.1-.075-.142-.084-.226-.166-.3.033-.562.156-.809l-.138-.379c-.087-.22.077-.408.182-.6-.116-.291-.417-.71-.085-1-.067-.146-.246-.231-.286-.377a.648.648 0 0 1 .034-.523c-.149-.287-.479-.6-.234-.958-.192-.185-.489-.4-.461-.741-.139-.3-.554-.464-.453-.874-.253-.145-.553-.359-.588-.675a.822.822 0 0 1-.591-.514c-.225-.154-.583-.172-.64-.5a.685.685 0 0 0-.452-.053 1.224 1.224 0 0 0-.227-.3.65.65 0 0 1-.473-.183.6.6 0 0 0-.537-.17c-.165-.03-.186-.237-.358-.3-.154.114-.373 0-.5-.128-.313.073-.5-.141-.74-.237-.143-.011-.371.02-.5-.085l-.173-.316a2.774 2.774 0 0 0-.759.189" transform="translate(-1.835 -9.589)" style="fill:url(#kv9uc8sm4a)"/>
        <path data-name="Path 202" d="M10.142 30.807a.676.676 0 0 1-.577.087 1.333 1.333 0 0 1-.528.1c-.213.044-.394.308-.616.123-.119-.059-.191.076-.272.149-.154.122-.36.019-.522-.011l-.219.241c-.079.12-.19.095-.3.069-.129-.03-.253-.06-.308.155-.08.173-.248.151-.4.129s-.309-.046-.332.154c-.107.238-.309.249-.548.21-.151.02-.108.172-.133.278-.1.246-.37.234-.627.239-.15.018-.027.216-.1.308-.052.326-.434.183-.644.259a.759.759 0 0 1 0 .192c-.144.21-.356.489-.649.449-.052.1.029.18.057.28.016.248-.235.358-.42.454-.343.021 0 .335-.2.49-.029.223-.273.307-.463.35a.93.93 0 0 1 .028.513c-.069.2-.311.308-.473.391 0 .188.162.407.03.613-.078.19-.3.23-.437.357a.553.553 0 0 1 .171.406.35.35 0 0 1-.158.382c-.385.124 0 .39.05.566.106.238-.12.451-.254.643a.774.774 0 0 1 .287.511c-.012.154-.137.283-.171.413a1.362 1.362 0 0 1 .409.441c.1.219-.077.438-.136.61a.871.871 0 0 1 .483.34.551.551 0 0 1-.016.506c-.12.253.253.189.363.321a.729.729 0 0 1 .105.643 1.278 1.278 0 0 1 .579.234.819.819 0 0 1 .109.509c.036.347.472.1.607.382a1.213 1.213 0 0 1 .2.687.766.766 0 0 1 .7.225 1.511 1.511 0 0 1 .183.747.535.535 0 0 0 .369.277c.36-.7.7-1.4 1.019-2.1l.019-.189-1.427-1.324A5.617 5.617 0 0 1 3.358 37.2c.87-3.217 4.269-5.171 7.326-5.648.466.013.338-.538.508-.8l-.432-.058c-.161.193-.394.116-.618.116" transform="translate(41.165 -16.054)" style="fill:url(#kv9uc8sm4a)"/>
        <path data-name="Path 203" d="M7.574 36.432a5.8 5.8 0 0 0-1.306 4.082 6.669 6.669 0 0 0 3.25 4.734.428.428 0 0 1 .019.26c-.39.881-.82 1.764-1.2 2.649-.026.083-.119.261.054.319a.237.237 0 0 0 .308 0c.467-.968.951-1.939 1.458-2.888.018-.127.171-.274.094-.409-1.825-1.218-3.344-3-3.316-5.217a6.04 6.04 0 0 1 1.275-3.315 8.084 8.084 0 0 1 5.112-2.947.242.242 0 0 0 .235-.3l-.2-.026a9.158 9.158 0 0 0-5.783 3.056" transform="translate(38.42 -17.8)" style="fill:url(#kv9uc8sm4a)"/>
        <path data-name="Path 204" d="M60.876 60.718a5.324 5.324 0 0 0-1.214.179 2.96 2.96 0 0 1 .582.052c-.1.163-.374.172-.485.262l1.192.117.009.027a2.491 2.491 0 0 1-1.055.22c.189.058.417.03.542.192a.818.818 0 0 1-.454.08h-.178v.021a2.135 2.135 0 0 0 1.383.143.862.862 0 0 1 .605-.626c-.016-.11-.142-.136-.233-.161a1.009 1.009 0 0 1-.526-.505h-.157zm-4.2-.038a.976.976 0 0 0-.421.09c0 .315-.358.4-.527.585v.062a.423.423 0 0 0 .267.127c.337.031.163.54.534.53a2.875 2.875 0 0 0 1.316-.294h-.206a1.121 1.121 0 0 1-.5-.071l.438-.218a7.12 7.12 0 0 1-.823-.1c-.081-.048-.228-.007-.3-.077.289-.2.7-.033 1.011-.191-.1-.1-.24-.064-.288-.184a.5.5 0 0 1 .31-.064.61.61 0 0 0 .234-.029c-.345-.016-.689-.164-1.041-.164zm2.238-.006c-.109.016-.255.047-.287.163a.358.358 0 0 0 .137.366.372.372 0 0 0 .408-.078.479.479 0 0 0 .019-.288.277.277 0 0 0-.25-.165.114.114 0 0 0-.027 0m-.167-1.748c-.31 0-.334.4-.507.585-.179.136-.5.036-.638.222a2.873 2.873 0 0 0 .546.743c.067-.211-.115-.344-.086-.533.235.085.235.4.453.453.113-.337.049-.741.145-1.1.245.307.074.722.175 1.058a.086.086 0 0 0 .119-.021c.137-.137.177-.386.35-.432a.314.314 0 0 1-.049.277c-.025.078-.124.245-.007.3a1.774 1.774 0 0 0 .509-.829l-.214-.02c-.433.051-.535-.446-.778-.7h-.015z" transform="translate(10.767 -32.044)" style="fill:url(#kv9uc8sm4a)"/>
        <path data-name="Path 205" d="M83.831 63.274a.559.559 0 0 0 .3.029.439.439 0 0 1 .348.068c-.14.14-.393.1-.569.134v.027l.35.065.972-.448a5.282 5.282 0 0 0-1.4.125m-1.132-.166a.314.314 0 0 0 .131.359.29.29 0 0 0 .427-.37.3.3 0 0 0-.273-.158c-.113.019-.248.056-.285.169m-2.25-.552a1.63 1.63 0 0 1-.747.509c.155.3.508.471.651.8a2.831 2.831 0 0 0 1.221.109c.187-.027.428-.013.555-.147a1.009 1.009 0 0 0-.391-.034c-.207.008-.417.016-.536-.137a3.217 3.217 0 0 1 .478-.123l-.994-.188c-.116-.029-.261-.111-.274-.205a2.309 2.309 0 0 1 .7.043 2.389 2.389 0 0 0 .623.051c-.1-.125-.337-.084-.38-.263a1.049 1.049 0 0 1 .375.034 1.275 1.275 0 0 0 .283.039 2.07 2.07 0 0 0-.794-.383 2.93 2.93 0 0 0-.58-.146.463.463 0 0 0-.193.041m3.078-1.127a.343.343 0 0 0-.177.069c-.314.179-.51.607-.939.506-.313-.008-.169.355-.163.5.026.128.092.248.24.207.161-.1.02-.343.142-.436l.222.293c.264-.086.335-.468.568-.66.1.258-.111.469-.129.721l.044.027c.18-.075.319-.253.522-.253.011.149-.143.186-.224.281a.159.159 0 0 0-.047.239 1.766 1.766 0 0 0 .694-.472c.164-.405-.455-.2-.508-.5-.052-.163-.043-.53-.245-.53z" transform="translate(-2.627 -33.438)" style="fill:url(#kv9uc8sm4a)"/>
        <path data-name="Path 206" d="M32.372 63.742c-.06.3-.344.41-.552.574.1.193.328.232.522.313.1.15.24.368.449.373.351-.123.761-.089 1.027-.336-.086-.141-.24-.062-.36-.118 0-.074.039-.1.075-.141a.24.24 0 0 1-.126-.026.17.17 0 0 0-.126-.02v-.043a1.231 1.231 0 0 0-.208 0 .789.789 0 0 1-.416-.044c.227-.219.6-.169.86-.3-.054-.1-.18-.057-.236-.1l.011-.115-.5-.036a.328.328 0 0 0-.231-.093.194.194 0 0 0-.188.113m2.7-.248h-.031c-.112.018-.258.049-.272.173a.3.3 0 0 0 .125.346.4.4 0 0 0 .42-.059.573.573 0 0 0 0-.308.266.266 0 0 0-.243-.154zm1.081-.276c0 .1.094.084.178.084.158.178-.269.151-.128.32l.769-.023.077.069c-.222.089-.5.053-.7.171v.01l-.149.144.3.126c.011.11-.1.11-.209.11s-.191 0-.183.086a1.91 1.91 0 0 0 1.127 0 2.06 2.06 0 0 1 .578-.724l-.034-.046c-.443 0-.555-.571-1.031-.53l.06-.048a2.406 2.406 0 0 0-.668.251m-2.236-.9a.614.614 0 0 1-.439.6.675.675 0 0 0 .446.365c.076-.073-.1-.212-.134-.3.022-.066.075-.031.126-.056.145.06.272.26.384.2-.008-.247-.133-.462-.079-.71.2.166.227.463.4.643.2-.021.137-.279.276-.379.027.043.068.074.068.133.019.124-.015.4.217.292.061-.125.166-.313.061-.467a5.371 5.371 0 0 1-1.186-.468c-.061.01-.175.074-.145.154" transform="translate(24.129 -33.851)" style="fill:url(#kv9uc8sm4a)"/>
        <path data-name="Path 207" d="M37.275 65.895a2.611 2.611 0 0 1-1.057 1.028 2.935 2.935 0 0 1-3.144-.2c-.251-.16-.487-.556-.824-.485a14.776 14.776 0 0 1-1.132 1.058 2.714 2.714 0 0 1-2.7.18c-.506-.1-.811-.629-1.366-.6-.662.309-1.1 1.1-1.822 1.291a2.143 2.143 0 0 0-.4.18c-.343.262-.934.144-1.369.078-.02-.043-.052-.033-.086-.022s-.067.02-.086-.03l-.035.026-.041-.044a5.435 5.435 0 0 1-1.575-.729c-.448-.144-.545.432-.864.607a4.827 4.827 0 0 1-1.782.85 2.932 2.932 0 0 1-.75-.073 2.723 2.723 0 0 0-.792-.069c0 .142.2.194.3.277a3.8 3.8 0 0 0 3.868-1.057 4.521 4.521 0 0 0 1.665.623 3.856 3.856 0 0 0 3.817-1.489 5.244 5.244 0 0 0 1.113.568 3.983 3.983 0 0 0 4.212-1.06 4.461 4.461 0 0 0 1.924.816 3.315 3.315 0 0 0 3.179-1.206c.211-.033.334.244.477.337a3.752 3.752 0 0 0 3.995.545c.311-.116.551-.369.861-.478a4.45 4.45 0 0 0 3.094 1.247l.44-.064 2.148-1.2a.269.269 0 0 0-.36-.159 3.457 3.457 0 0 1-2.291.985 3.254 3.254 0 0 1-2.914-1.494l-.137-.013a4.442 4.442 0 0 1-1.754 1.011 2.773 2.773 0 0 1-2.636-.625l-.628-.677a.721.721 0 0 0-.175-.021.878.878 0 0 0-.368.084" transform="translate(31.996 -35.892)" style="fill:url(#kv9uc8sm4a)"/>
        <path data-name="Path 208" d="M12.92 69.275a.2.2 0 1 0 .394 0 .2.2 0 0 0-.394 0m1.036-1.151a.377.377 0 0 0-.112.023c-.192.1-.4.244-.441.459a.216.216 0 0 0 .208-.1c.067-.073.128-.146.233-.076-.053.127-.222.261-.15.4.266-.055.494-.236.759-.313.026.011.01.071.01.086l-.5.361c-.022.141.181.084.264.169-.044.086-.14.046-.2.124.024.119.1.092.189.066a.234.234 0 0 1 .183 0c.15-.028.132-.212.2-.326.037-.193.287-.275.354-.452a4.461 4.461 0 0 0-.433-.111c-.217-.052-.343-.307-.563-.307zm-3.236-.036a6.613 6.613 0 0 1 1.526.6h.143c-.025-.171-.19-.328-.227-.494.188.1.346.3.5.344a.647.647 0 0 0-.2-.455 1.189 1.189 0 0 0-.787-.167 2.631 2.631 0 0 1-.363-.011c-.247.032-.49 0-.593.179" transform="translate(35.93 -37.055)" style="fill:url(#kv9uc8sm4a)"/>
        <path data-name="Path 209" d="M34.267 69.513c-.22-.057-.43-.271-.692-.162a4.669 4.669 0 0 1-3.307 1.015 2.232 2.232 0 0 1-.929-.2A1.361 1.361 0 0 0 28 70.128c-.081.024-.116.121-.207.151a4.606 4.606 0 0 1-3.734.726c-.449-.073-.825-.364-1.3-.355a5.686 5.686 0 0 1-2.055.919 1.1 1.1 0 0 1-.367.033.957.957 0 0 0-.5.082c-.017.1.06.076.129.133h24.616C44.62 71.765 47 70.152 47 70.152a4.089 4.089 0 0 1-2.32-.546c-.349-.115-.58-.626-.955-.337a4.552 4.552 0 0 1-3.783.263c-.453-.15-.756-.572-1.21-.627a4.2 4.2 0 0 1-4.462.608" transform="translate(30.684 -37.618)" style="fill:url(#kv9uc8sm4a)"/>
        <path data-name="Path 210" d="M20.161 76.313c-.3 0-.191.211-.122.236h23.779l.288-.236z" transform="translate(30.64 -41.743)" style="fill:url(#kv9uc8sm4a)"/>
        <path data-name="Path 211" d="M23.463 80.134h-.014a2.568 2.568 0 0 1-.527.622.51.51 0 0 0 .19.416c1.05.009 2.3.037 3.351.009 0 0-2.7-1.049-3-1.049M35.7 80.06a.487.487 0 0 0-.364.2 1.392 1.392 0 0 1-2.128.435 3.912 3.912 0 0 1-.321-.34c-.188-.191-.442-.17-.749-.088a25.4 25.4 0 0 0-2.467.912h8.8A16.8 16.8 0 0 0 35.7 80.06zm-13.794-2.051c-.087.015-.138.164-.19.237a.222.222 0 0 0 .021.115 1.607 1.607 0 0 1 1.247.39c.148.149.265.381.412.53l3.335-1.272zm7-.059 3.673 1.323c.2.076.246-.146.305-.256a1.389 1.389 0 0 1 1.232-.687 1.562 1.562 0 0 1 1.225.849l3.841-1.229zm6.945 1.65 4.178 1.62 1.377-.536 1.542-1.621-2.9-1.109zm5.249-1.65 2.228.757.84-.757zm-17.4 1.693 4.281 1.613 4.288-1.576h.014l-.015-.007-4.306-1.74z" transform="translate(29.67 -42.662)" style="stroke:#d9ad06;stroke-width:.4px;fill:none"/>
        <path data-name="Path 212" d="m32.579 80.933.194.651c.581-.152 2.141-.668 2.141-.668zm-.022-.3h2.514l-2.3-.724zm-2.148.01 1.71-.01.323-.775z" transform="translate(24.926 -43.733)" style="fill:url(#kv9uc8sm4a)"/>
        <path data-name="Path 214" d="M35.7 89.6h-.216c-4.566 0-9.94.015-9.94.015-.1.021-.132.173-.142.248s.1.063.156.11h15.373l.173-.358c-1-.009-2.971-.014-5.189-.015zm-10.216-1.459.2 1h15.681l.644-1z" transform="translate(27.65 -48.359)" style="fill:url(#kv9uc8sm4a)"/>
        <path data-name="Path 215" d="M30.071 36.543a.281.281 0 0 0 .561 0 .281.281 0 0 0-.561 0m-.5-.966a.283.283 0 1 0 .566 0 .283.283 0 0 0-.566 0m-.517-1.014a.264.264 0 0 0 .264.275.277.277 0 0 0 .289-.275.28.28 0 0 0-.289-.282.268.268 0 0 0-.264.282m-.463-1.09a.272.272 0 0 0 .28.263.262.262 0 1 0 0-.525.27.27 0 0 0-.28.261m-.337-1.05a.266.266 0 0 0 .266.266.262.262 0 0 0 .256-.266.268.268 0 0 0-.256-.273.272.272 0 0 0-.266.273m-.431-1.059a.259.259 0 0 0 .268.27.262.262 0 0 0 .263-.27.266.266 0 0 0-.263-.256.262.262 0 0 0-.268.256m-.338-.98a.263.263 0 0 0 .26.265.274.274 0 0 0 .278-.265.278.278 0 0 0-.278-.266.267.267 0 0 0-.26.266m-.253-1.093a.268.268 0 0 0 .273.275.274.274 0 0 0 .267-.275.263.263 0 0 0-.267-.255.258.258 0 0 0-.273.255m-.132-1.048a.278.278 0 0 0 .268.271.269.269 0 1 0 0-.538.28.28 0 0 0-.268.267m-.024-1.08a.267.267 0 0 0 .534 0 .267.267 0 0 0-.534 0m.146-1.115a.237.237 0 0 0 .248.238.227.227 0 0 0 .229-.238.249.249 0 0 0-.229-.257.258.258 0 0 0-.248.257m.282-.929a.246.246 0 0 0 .24.24.242.242 0 0 0 .235-.24.239.239 0 0 0-.235-.244.243.243 0 0 0-.24.244m.368-.894a.239.239 0 0 0 .241.237.241.241 0 1 0 0-.482.238.238 0 0 0-.241.245m.41-.812a.239.239 0 1 0 .237-.228.231.231 0 0 0-.237.228m.61-.8a.215.215 0 0 0 .206.214.215.215 0 1 0 0-.428.213.213 0 0 0-.206.215m0-.477a.22.22 0 0 1 .124-.021.177.177 0 0 0 .15-.044.115.115 0 0 0-.033-.137c-.1.035-.248.086-.24.2m.633-.231a.205.205 0 1 0 .205-.212.208.208 0 0 0-.205.212m.159-.4a.225.225 0 0 0 .227-.021c.037-.053-.028-.083-.073-.083-.06.029-.154.03-.154.1m.592-.1a.183.183 0 0 0 .2.195.209.209 0 0 0 .211-.195.218.218 0 0 0-.211-.21.192.192 0 0 0-.2.21m.737-.441a.138.138 0 0 0 .147.149.15.15 0 1 0 0-.3.139.139 0 0 0-.147.15m.623-.317a.178.178 0 0 0 .176.16.165.165 0 0 0 .144-.16.15.15 0 0 0-.144-.151.165.165 0 0 0-.176.151m.753-.253a.1.1 0 0 0 .1.087.1.1 0 0 0 .1-.087.1.1 0 0 0-.1-.11.1.1 0 0 0-.1.11m.643-.239a.092.092 0 0 0 .1.1.1.1 0 0 0 .1-.1.113.113 0 0 0-.1-.106.1.1 0 0 0-.1.106" transform="translate(26.777 -10.176)" style="fill:url(#kv9uc8sm4a)"/>
        <path data-name="Path 216" d="M25.713 67.217a.215.215 0 0 0 .237.22.229.229 0 0 0 .239-.22.242.242 0 0 0-.239-.247.228.228 0 0 0-.237.247" transform="translate(27.573 -36.525)" style="fill:url(#kv9uc8sm4a)"/>
        <path data-name="Path 217" d="M50.107 64.181a.245.245 0 0 0 .489 0 .245.245 0 0 0-.489 0" transform="translate(13.947 -34.836)" style="fill:url(#kv9uc8sm4a)"/>
        <path data-name="Path 218" d="M74.3 63.991a.224.224 0 0 0 .235.229.24.24 0 0 0 .255-.229.249.249 0 0 0-.255-.242.234.234 0 0 0-.235.242" transform="translate(.433 -34.726)" style="fill:url(#kv9uc8sm4a)"/>
        <path data-name="Path 219" d="M61.593 39.227a.33.33 0 0 0 .318.329.32.32 0 0 0 .315-.329.316.316 0 0 0-.315-.329.326.326 0 0 0-.318.329m0-1.113a.324.324 0 0 0 .318.322.324.324 0 0 0 0-.648.322.322 0 0 0-.318.326M61.529 37a.319.319 0 0 0 .329.316.306.306 0 0 0 .317-.316.326.326 0 0 0-.317-.332.34.34 0 0 0-.329.332m.092-1.143a.273.273 0 0 0 .266.271.274.274 0 1 0-.266-.271M61.58 34.8a.269.269 0 0 0 .538 0 .269.269 0 0 0-.538 0m0-.986a.269.269 0 0 0 .538 0 .269.269 0 1 0-.538 0m.041-1.03a.264.264 0 0 0 .266.272.268.268 0 0 0 0-.536.266.266 0 0 0-.266.264m-.041-.9a.254.254 0 0 0 .232.256.261.261 0 0 0 .253-.256.25.25 0 0 0-.253-.232.241.241 0 0 0-.232.232m.06-.905a.2.2 0 0 0 .207.2.194.194 0 0 0 .2-.2.2.2 0 0 0-.2-.211.212.212 0 0 0-.207.211m.055-.905a.153.153 0 0 0 .168.137.147.147 0 0 0 .146-.137.163.163 0 0 0-.146-.166.167.167 0 0 0-.168.166m0-.853a.156.156 0 0 0 .163.149.147.147 0 0 0 .142-.154.155.155 0 0 0-.138-.162.163.163 0 0 0-.163.162" transform="translate(7.566 -15.15)" style="fill:url(#kv9uc8sm4a)"/>
        <path data-name="Path 220" d="M85.064 35.766a.273.273 0 0 0 .286.261.262.262 0 0 0 .279-.261.267.267 0 0 0-.279-.281.278.278 0 0 0-.286.281m.5-.971a.3.3 0 0 0 .283.286.283.283 0 0 0 .27-.286.271.271 0 0 0-.27-.278.283.283 0 0 0-.283.278m.523-1.017a.281.281 0 0 0 .281.272.275.275 0 0 0 .281-.272.271.271 0 0 0-.281-.277.277.277 0 0 0-.281.277m.47-1.082a.276.276 0 0 0 .283.257.26.26 0 0 0 .255-.257.256.256 0 0 0-.255-.266.271.271 0 0 0-.283.266m.357-1.068a.265.265 0 0 0 .259.265.261.261 0 0 0 .276-.265.266.266 0 0 0-.276-.262.271.271 0 0 0-.259.262m.43-1.044a.274.274 0 0 0 .276.268.267.267 0 0 0 0-.533.273.273 0 0 0-.276.265m.371-1.075a.269.269 0 0 0 .537 0 .268.268 0 0 0-.537 0m.254-1.1a.261.261 0 0 0 .259.273.266.266 0 0 0 .266-.273.27.27 0 0 0-.266-.265.264.264 0 0 0-.259.265m.093-1.043a.252.252 0 0 0 .25.255.262.262 0 0 0 .278-.255.272.272 0 0 0-.278-.271.263.263 0 0 0-.25.271m0-1.051a.262.262 0 0 0 .25.269.271.271 0 0 0 .278-.269.265.265 0 0 0-.278-.265.255.255 0 0 0-.25.265m-.176-1a.241.241 0 0 0 .481 0 .241.241 0 1 0-.481 0m-.231-.948a.255.255 0 0 0 .244.249.245.245 0 0 0 .236-.249.23.23 0 0 0-.236-.243.239.239 0 0 0-.244.243m-.415-.967a.237.237 0 0 0 .231.245.242.242 0 1 0 0-.484.234.234 0 0 0-.231.239m-.488-.775a.241.241 0 0 0 .226.25.259.259 0 0 0 .253-.25.251.251 0 0 0-.253-.238.232.232 0 0 0-.226.238m-.558-.779a.223.223 0 0 0 .223.218.21.21 0 0 0 .213-.218.216.216 0 0 0-.213-.225.229.229 0 0 0-.223.225m-.6-.729a.2.2 0 1 0 .4 0 .2.2 0 0 0-.4 0m-.743-.508a.2.2 0 1 0 .4 0 .194.194 0 0 0-.2-.2.2.2 0 0 0-.2.2m-.672-.419a.144.144 0 0 0 .15.145.147.147 0 0 0 .149-.145.16.16 0 0 0-.149-.166.157.157 0 0 0-.15.166m-.646-.326a.142.142 0 0 0 .147.142.152.152 0 0 0 .16-.142.158.158 0 0 0-.16-.161.149.149 0 0 0-.147.161m-.636-.259a.106.106 0 0 0 .212 0 .106.106 0 0 0-.212 0m-.673-.178a.1.1 0 1 0 .2 0 .1.1 0 0 0-.1-.106.1.1 0 0 0-.094.106m-.657-.219a.1.1 0 0 0 .094.1.111.111 0 0 0 .1-.1.121.121 0 0 0-.1-.113.112.112 0 0 0-.094.113m-.639-.138a.114.114 0 0 0 .105.107.1.1 0 0 0 .1-.107.1.1 0 0 0-.1-.107.11.11 0 0 0-.105.107" transform="translate(-3.326 -9.576)" style="fill:url(#kv9uc8sm4a)"/>
        <path data-name="Path 221" d="M3.3 45.043a.3.3 0 0 0 .284.29.3.3 0 0 0 .307-.29.3.3 0 0 0-.307-.293.293.293 0 0 0-.284.293m-.878-.938a.294.294 0 0 0 .588 0 .294.294 0 1 0-.588 0m-.708-.9a.276.276 0 0 0 .286.282.271.271 0 0 0 .27-.279.276.276 0 0 0-.27-.275.281.281 0 0 0-.288.274m-.639-.876a.287.287 0 0 0 .285.278.276.276 0 0 0 .28-.278.272.272 0 0 0-.28-.283.282.282 0 0 0-.285.283m-.425-.98a.275.275 0 0 0 .274.27.281.281 0 0 0 .283-.27.286.286 0 0 0-.283-.287.28.28 0 0 0-.274.287M.24 40.288a.265.265 0 0 0 .269.259.261.261 0 1 0 0-.521.264.264 0 0 0-.269.261M0 39.2a.271.271 0 0 0 .278.265.259.259 0 0 0 .256-.265.265.265 0 0 0-.257-.281A.276.276 0 0 0 0 39.2m.026-.929a.247.247 0 0 0 .251.236.242.242 0 0 0 .241-.236.246.246 0 0 0-.241-.241.25.25 0 0 0-.251.241M.1 37.187a.241.241 0 0 0 .255.241.235.235 0 0 0 .233-.241.239.239 0 0 0-.233-.236.246.246 0 0 0-.255.236m.3-.987a.239.239 0 0 0 .233.247.241.241 0 0 0 0-.482.239.239 0 0 0-.233.235m.468-.954a.222.222 0 0 0 .225.222.218.218 0 1 0 0-.436.223.223 0 0 0-.225.214m.517-.882a.214.214 0 1 0 .428 0 .226.226 0 0 0-.206-.226.227.227 0 0 0-.223.226m.52-.783a.2.2 0 1 0 .4 0 .2.2 0 1 0-.4 0m.653-.77a.192.192 0 0 0 .2.189.186.186 0 0 0 .2-.189.189.189 0 0 0-.2-.2.2.2 0 0 0-.2.2m.694-.594a.207.207 0 1 0 .414 0 .208.208 0 0 0-.414 0m.75-.521a.2.2 0 0 0 .2.208.2.2 0 0 0 .206-.208.2.2 0 0 0-.206-.193.2.2 0 0 0-.2.193m.81-.464a.16.16 0 0 0 .146.154.151.151 0 1 0 0-.3.161.161 0 0 0-.146.149m.782-.381a.152.152 0 1 0 .3 0 .144.144 0 0 0-.149-.142.145.145 0 0 0-.154.142m.728-.271a.136.136 0 1 0 .273 0 .136.136 0 0 0-.273 0m.79-.2a.139.139 0 0 0 .131.139.124.124 0 0 0 .117-.139.123.123 0 0 0-.117-.134.138.138 0 0 0-.131.134m.621-.134a.135.135 0 0 0 .269 0 .132.132 0 0 0-.137-.124.134.134 0 0 0-.133.124m.662-.149a.143.143 0 0 0 .143.137.132.132 0 0 0 .125-.137.125.125 0 0 0-.125-.127.136.136 0 0 0-.143.127m.65-.113a.107.107 0 0 0 .1.1.1.1 0 0 0 .1-.1.1.1 0 0 0-.1-.1.1.1 0 0 0-.1.1m.593-.056a.1.1 0 0 0 .093.1.1.1 0 0 0 .1-.1.1.1 0 0 0-.1-.107.1.1 0 0 0-.093.107m.587-.123a.106.106 0 0 0 .111.1.091.091 0 0 0 .1-.1.09.09 0 0 0-.1-.1.107.107 0 0 0-.111.1" transform="translate(41.89 -15.516)" style="fill:url(#kv9uc8sm4a)"/>
        <path data-name="Path 222" d="M21.9 80.147a.463.463 0 0 0 .461.45.456.456 0 0 0 .454-.45.443.443 0 0 0-.454-.441.45.45 0 0 0-.461.441" transform="translate(29.7 -43.642)" style="fill:url(#kv9uc8sm4a)"/>
        <path data-name="Path 223" d="M48.59 80.306a.578.578 0 0 0 .576.473c.338 0 .638-.181.592-.473a.583.583 0 0 0-.592-.423c-.312 0-.576.229-.576.423" transform="translate(14.79 -43.74)" style="fill:url(#kv9uc8sm4a)"/>
        <path data-name="Path 224" d="M59.811 80.945v.664l1.855-.664zm-2.562-.26h2.245v-.78zm2.545 0h2.232l-2.25-.8z" transform="translate(9.928 -43.745)" style="fill:url(#kv9uc8sm4a)"/>
        <path data-name="Path 213" d="M24.406 86.227c-.032.05-.119.056-.119.124l.087.057h17.511l.133-.182z" transform="translate(28.265 -47.28)" style="fill:url(#kv9uc8sm4a)"/>
    </g>
</svg>
